<?xml version="1.0" encoding="utf-8"?>
<!-- Generator: Adobe Illustrator 28.0.0, SVG Export Plug-In . SVG Version: 6.00 Build 0)  -->
<svg version="1.1" baseProfile="tiny" id="Layer_1" xmlns="http://www.w3.org/2000/svg" xmlns:xlink="http://www.w3.org/1999/xlink"
	 x="0px" y="0px" viewBox="0 0 462.9 278.23" overflow="visible" xml:space="preserve">
<g>
	<path fill="#B09C55" d="M231.68,75.43l2.67,0.17l0.33-6.36c-2.93-1.26-6.07-1.8-9.36-1.8c-7.73,0-12.39,4.8-12.39,10.99
		c0,6.2,4.66,10.99,12.39,10.99c3.3,0,6.43-0.57,9.36-1.93l-0.33-6.33h-2.67l-0.53,4c-1.47,1.1-3.5,1.6-5.5,1.6
		c-5.03,0-8.6-3-8.6-8.33c0-5.33,3.56-8.33,8.6-8.33c2,0,4.03,0.5,5.5,1.6L231.68,75.43z"/>
	<polygon fill="#B09C55" points="241.88,79.63 241.88,84.09 244.88,84.26 244.98,79.63 249.51,79.63 249.68,77.03 245.04,76.93 
		245.14,72.64 241.88,72.64 241.88,76.86 237.38,76.76 237.38,79.63 	"/>
	<polygon fill="#B09C55" points="267.21,68.27 251.81,68.27 251.65,70.3 254.91,71 254.91,85.86 251.65,86.56 251.81,88.59 
		273.3,88.59 273.97,81.3 271.3,81.06 269.97,85.76 258.97,85.76 258.97,79.1 265.11,79.1 266.04,82.23 268.21,82.06 268.21,74.03 
		266.14,73.87 265.11,76.3 258.97,76.3 258.97,71.1 269.91,71.1 270.21,74.87 272.84,75 273.27,68.2 273.04,68.07 	"/>
	<path fill="#B09C55" d="M216.27,32.12l5.11,6.63c0.23,0.29,0.59,0.47,0.99,0.47h21.03l0.08-0.01l0.12,0.01h21.04
		c0.39,0,0.74-0.19,0.97-0.47l5.11-6.63c0.41-0.54,0.32-1.31-0.23-1.72c-0.52-0.43-1.28-0.32-1.72,0.21l-4.75,6.16h-19.39V20.53
		c0-0.68-0.56-1.22-1.22-1.22c-0.7,0-1.26,0.54-1.26,1.22v16.24h-19.19l-4.74-6.16c-0.43-0.53-1.2-0.64-1.73-0.21
		C215.95,30.81,215.84,31.57,216.27,32.12z M207.27,25.49c0-2.42,1.97-4.39,4.4-4.39c2.43,0,4.42,1.97,4.42,4.39
		c0,2.43-1.99,4.39-4.42,4.39C209.24,29.88,207.27,27.92,207.27,25.49z M209.72,25.49c0,1.06,0.88,1.94,1.95,1.94
		c1.05,0,1.94-0.88,1.94-1.94c0-1.06-0.89-1.92-1.94-1.92C210.6,23.57,209.72,24.43,209.72,25.49z M216.54,17.91
		c0-2.42,1.97-4.39,4.39-4.39c2.44,0,4.41,1.97,4.41,4.39c0,2.42-1.97,4.4-4.41,4.4C218.51,22.31,216.54,20.32,216.54,17.91z
		 M219.01,17.91c0,1.07,0.87,1.91,1.92,1.91c1.07,0,1.94-0.84,1.94-1.91c0-1.07-0.88-1.93-1.94-1.93
		C219.88,15.97,219.01,16.84,219.01,17.91z M227.45,13.47c0-2.43,1.97-4.38,4.4-4.38c2.43,0,4.4,1.95,4.4,4.38
		c0,2.44-1.97,4.4-4.4,4.4C229.42,17.87,227.45,15.9,227.45,13.47z M229.92,13.47c0,1.06,0.86,1.94,1.93,1.94
		c1.07,0,1.93-0.87,1.93-1.94s-0.86-1.93-1.93-1.93C230.78,11.53,229.92,12.4,229.92,13.47z M239.05,11.65c0-2.42,1.98-4.4,4.41-4.4
		c2.42,0,4.38,1.98,4.38,4.4c0,2.44-1.96,4.4-4.38,4.4C241.03,16.06,239.05,14.09,239.05,11.65z M241.51,11.65
		c0,1.06,0.88,1.92,1.95,1.92c1.06,0,1.93-0.86,1.93-1.92c0-1.04-0.87-1.93-1.93-1.93C242.39,9.72,241.51,10.61,241.51,11.65z
		 M225.28,23.15c-0.53,0.42-0.63,1.18-0.22,1.73l2.57,3.21c0.26,0.36,0.68,0.52,1.07,0.49c0.22-0.02,0.45-0.1,0.65-0.26
		c0.53-0.42,0.64-1.18,0.21-1.74l-2.55-3.24C226.59,22.81,225.81,22.72,225.28,23.15z M261.45,23.15c0.53,0.42,0.63,1.18,0.22,1.73
		l-2.57,3.21c-0.26,0.36-0.67,0.52-1.07,0.49c-0.22-0.02-0.45-0.1-0.66-0.26c-0.53-0.42-0.64-1.18-0.21-1.74l2.55-3.24
		C260.14,22.81,260.91,22.72,261.45,23.15z M234.52,19.93c-0.64,0.22-0.96,0.93-0.74,1.57l1.42,3.86c0.21,0.5,0.65,0.82,1.16,0.82
		c0.13,0,0.3-0.03,0.43-0.09c0.62-0.24,0.97-0.95,0.73-1.58l-1.43-3.86C235.85,20.01,235.12,19.69,234.52,19.93z M270.83,25.49
		c0-2.42,1.98-4.39,4.4-4.39c2.43,0,4.4,1.97,4.4,4.39c0,2.43-1.97,4.39-4.4,4.39C272.81,29.88,270.83,27.92,270.83,25.49z
		 M273.31,25.49c0,1.06,0.85,1.94,1.92,1.94c1.07,0,1.93-0.88,1.93-1.94c0-1.06-0.86-1.92-1.93-1.92
		C274.17,23.57,273.31,24.43,273.31,25.49z M261.57,17.91c0-2.42,1.95-4.39,4.4-4.39c2.42,0,4.4,1.97,4.4,4.39
		c0,2.42-1.98,4.4-4.4,4.4C263.53,22.31,261.57,20.32,261.57,17.91z M264.03,17.91c0,1.07,0.86,1.91,1.94,1.91
		c1.05,0,1.92-0.84,1.92-1.91c0-1.07-0.86-1.93-1.92-1.93C264.89,15.97,264.03,16.84,264.03,17.91z M250.67,13.47
		c0-2.43,1.95-4.38,4.38-4.38c2.42,0,4.4,1.95,4.4,4.38c0,2.44-1.99,4.4-4.4,4.4C252.62,17.87,250.67,15.9,250.67,13.47z
		 M253.12,13.47c0,1.06,0.84,1.94,1.93,1.94c1.06,0,1.93-0.87,1.93-1.94s-0.87-1.93-1.93-1.93
		C253.96,11.53,253.12,12.4,253.12,13.47z M250.12,26.1c0.14,0.06,0.27,0.09,0.42,0.09c0.5,0,0.97-0.33,1.16-0.82l1.42-3.86
		c0.24-0.64-0.08-1.35-0.72-1.57c-0.65-0.25-1.35,0.08-1.59,0.73l-1.41,3.86C249.15,25.15,249.48,25.86,250.12,26.1z M238.05,30.13
		c0.17,0.68-0.21,1.35-0.87,1.52l-7.94,2.04c-0.66,0.17-1.32-0.24-1.48-0.88c-0.18-0.68,0.21-1.35,0.87-1.52l7.94-2.04
		C237.22,29.08,237.89,29.49,238.05,30.13z M250.33,29.25l7.94,2.04c0.66,0.17,1.04,0.84,0.87,1.52c-0.17,0.64-0.83,1.05-1.48,0.88
		l-7.94-2.04c-0.66-0.17-1.04-0.84-0.87-1.52C249.01,29.49,249.67,29.08,250.33,29.25z M175.03,144.98
		c-0.56-0.45-1.43-0.43-1.95,0.09c-0.52,0.5-0.47,1.28,0.09,1.76c0.17,0.12,3.25,2.52,8.2,2.52c1.61,0,3.42-0.26,5.37-0.96
		c0.76-0.22,1.12-0.93,0.82-1.56c-0.28-0.63-1.1-0.96-1.81-0.7C179.38,148.26,175.24,145.12,175.03,144.98z M173.72,161.82
		c-8.97-1.63-14.45-10.02-14.5-10.06c-0.69-1.13-2.05-1.83-3.56-1.85c-1.4-0.04-2.72,0.59-3.41,1.58c-0.46,0.68-1.04,2.18,0.41,4.39
		c0.38,0.61,1.24,0.81,1.92,0.47c0.67-0.34,0.9-1.07,0.52-1.68c-0.54-0.84-0.69-1.55-0.42-1.92c0.18-0.29,0.59-0.39,0.93-0.39
		c0.2,0,0.82,0.06,1.15,0.57c0.25,0.39,6.13,9.43,16.39,11.31c0.1,0.02,0.18,0.03,0.28,0.03c0.65,0,1.24-0.39,1.4-0.97
		C174.97,162.61,174.47,161.96,173.72,161.82z M157.08,40.57c-0.1,0.08-0.2,0.17-0.31,0.26c-1.33,1.18-2.08,3.56-2.21,4.04
		c-0.17,0.66,0.27,1.33,1.04,1.49c0.11,0.01,0.23,0.05,0.34,0.05c0.63,0,1.21-0.39,1.36-0.93c0.26-0.89,0.9-2.4,1.46-2.91
		c0.99-0.88,1.76-1.33,1.76-1.33c0.45-0.24,0.69-0.68,0.63-1.14c-0.06-0.43-0.37-0.84-0.84-1.02l-5.39-1.98
		c-0.74-0.26-1.54,0.06-1.84,0.68c-0.31,0.62,0.05,1.34,0.74,1.61L157.08,40.57z M130.17,53.21c-0.4-2.99,0.3-8.69,5.2-10.97
		c-0.69-1.09-1.18-2.29-1.53-3.45c-0.18-0.54,0.12-1.11,0.65-1.38c0.55-0.26,1.27-0.19,1.69,0.21c2.83,2.51,8.78-0.25,11.1-1.48
		c-0.1-1.88-0.33-2.64-0.33-2.64c-0.09-0.35-0.03-0.71,0.19-1.01c0.22-0.29,0.57-0.51,0.97-0.55c0.25-0.02,4.41-0.47,8.23,0.89
		c3.95-1.73,7.4,0.3,9.01,1.97c1.92,0.37,9.11,1.91,12.61,2.88c2.89,0.82,3.86,1.01,4.13,1.05c0.36-0.05,0.64,0.06,0.94,0.26
		c0.3,0.21,0.37,0.53,0.42,0.89c0.14,1.27,0.18,3.56-0.96,4.54c0.52,0.94,0.75,2.29-0.18,3.88c-1.34,2.36-2.82,3.8-2.91,3.87
		c-0.28,0.3-0.76,0.45-1.2,0.37c1.68,0.68,3.14,1.06,4.14,0.68c0.75-0.26,1.38-1.02,1.87-2.25c0.24-0.67,1.05-0.99,1.79-0.79
		c0.74,0.24,1.11,0.94,0.87,1.58c-0.76,1.96-1.9,3.19-3.46,3.76c-0.61,0.22-1.28,0.34-1.92,0.34c-1.89,0-3.9-0.8-5.99-1.68
		l1.84,4.28c0.08,0.27,0.08,0.52,0.01,0.78l-1,2.97c-0.14,0.45-0.59,0.77-1.09,0.86c-0.11,0.02-0.84,0.12-2.03,0.12
		c-0.32,0-0.76-0.01-1.19-0.03c1.76,1.29,3.44,2.81,4.32,5.08c0.15,0.35,0.27,0.72,0.38,1.1c1.52-1.4,4.21-4.36,5.58-8.73
		c2.38-7.65,14.15-7.08,14.63-7.06c0.39,0.04,0.77,0.2,1.02,0.47c0.25,0.28,0.36,0.61,0.29,0.97l-0.43,2.32l2.19,3.16
		c0.38,0.53,0.22,1.23-0.36,1.62l-1.34,0.9l1.35,2.15c0.31,0.47,0.21,1.07-0.21,1.44c-0.51,0.46-3.17,2.69-5.57,2.69h-0.92
		c-0.62,1.48-2.09,4.46-4.7,6.96c0.29-0.04,1.42-0.33,3.4-2.08c3.63-3.16,8.7-1.56,8.91-1.49c0.62,0.2,1.01,0.73,0.91,1.3
		l-0.26,2.13l1.35,0.79l0.34-1.2c0.87-3.22,1.31-6.27,1.31-9.05c0-7.36-3.07-11.55-5.69-13.78c-0.32-0.29-0.5-0.67-0.49-1.06
		c0-0.42,0.2-0.79,0.54-1.08c1.69-1.38,3.7-3.38,5.34-4.99c1.08-1.11,1.9-1.9,2.41-2.32c0.3-0.24,0.71-0.39,1.13-0.39h71.71
		c0.42,0,0.83,0.15,1.14,0.39c0.54,0.42,1.33,1.22,2.45,2.32c1.61,1.61,3.62,3.61,5.3,4.99c0.34,0.29,0.52,0.65,0.52,1.08
		c0.02,0.4-0.15,0.78-0.46,1.06c-2.6,2.23-5.7,6.42-5.7,13.78c0,2.77,0.44,5.82,1.33,9.08l0.39,1.32l1.56-0.94l-0.24-2.13
		c-0.08-0.57,0.31-1.1,0.9-1.3c0.21-0.07,5.28-1.67,8.91,1.49c1.97,1.75,3.11,2.04,3.4,2.08c-2.63-2.5-4.08-5.47-4.7-6.96h-0.89
		c-2.42,0-5.07-2.23-5.57-2.69c-0.45-0.37-0.55-0.97-0.25-1.44l1.36-2.15l-1.35-0.9c-0.55-0.39-0.7-1.09-0.33-1.62l2.2-3.16
		l-0.43-2.32c-0.08-0.36,0.03-0.69,0.28-0.97c0.25-0.27,0.62-0.43,1.01-0.47c0.5-0.02,12.24-0.59,14.65,7.06
		c1.35,4.37,4.03,7.33,5.57,8.73c0.12-0.38,0.25-0.75,0.37-1.1c0.91-2.26,2.56-3.79,4.33-5.08c-0.41,0.02-0.85,0.03-1.19,0.03
		c-1.18,0-1.9-0.1-2.01-0.12c-0.55-0.09-0.96-0.4-1.11-0.86l-0.97-2.97c-0.1-0.26-0.1-0.52,0-0.78l1.84-4.28
		c-2.09,0.88-4.11,1.68-6.01,1.68c-0.66,0-1.31-0.12-1.93-0.34c-1.55-0.57-2.68-1.79-3.44-3.76c-0.26-0.65,0.13-1.35,0.86-1.58
		c0.75-0.2,1.56,0.12,1.79,0.79c0.49,1.23,1.14,1.99,1.87,2.25c1,0.38,2.49,0,4.16-0.68c-0.45,0.08-0.92-0.07-1.23-0.37
		c-0.07-0.07-1.58-1.51-2.88-3.87c-0.94-1.59-0.7-2.94-0.17-3.88c-1.14-0.98-1.11-3.27-0.99-4.54c0.04-0.36,0.13-0.68,0.43-0.89
		c0.3-0.19,0.57-0.3,0.91-0.26c0.29-0.05,1.27-0.23,4.15-1.05c3.49-0.97,10.68-2.51,12.61-2.88c1.6-1.66,5.05-3.7,9-1.97
		c3.82-1.36,7.98-0.91,8.22-0.89c0.41,0.04,0.75,0.25,0.99,0.55c0.23,0.29,0.27,0.66,0.15,1.02c0,0-0.18,0.75-0.27,2.63
		c2.26,1.24,8.22,3.99,11.06,1.48c0.45-0.4,1.14-0.47,1.7-0.21c0.52,0.27,0.82,0.84,0.66,1.38c-0.35,1.16-0.85,2.36-1.54,3.45
		c4.89,2.28,5.55,7.98,5.16,10.97c-0.05,0.51-0.47,0.93-1.02,1.05c-0.34,0.08-1.91,0.4-3.71,0.4c-0.56,0-1.13-0.06-1.7-0.11
		c0.38,0.78,0.9,1.42,1.51,1.9c1.66,1.21,3.57,0.96,3.65,0.96c0.48-0.06,0.94,0.07,1.24,0.37c0.34,0.31,0.48,0.73,0.36,1.12
		c-0.05,0.23-1.03,4.01-3.92,6.23c1.79,0.16,3.14,0.06,3.14,0.06c0.55-0.03,1.06,0.2,1.35,0.58c0.6,0.89,0.13,2.17-4.04,5.83
		c-2.04,1.79-5.07,2.82-7.94,2.82c-1.25,0-2.47-0.19-3.57-0.61c-1.13-0.42-2.04-0.99-2.72-1.79c-0.09,0.15-0.18,0.27-0.26,0.4
		c-0.74,0.9-1.52,1.7-2.38,2.4l-0.45,4.79c1.23,3.52,4.32,6.07,7.62,8.81c0.85,0.69,1.73,1.41,2.62,2.17
		c2.51,2.22,3.98,4.26,4.79,6.1c0.21-0.01,0.37-0.02,0.57-0.02c0.84-0.29,1.6-1.03,2.31-1.76c0.22-0.23,0.46-0.44,0.67-0.65
		c0.67-1.57-0.2-3.02-1.7-5.16c-0.69-1.01-1.39-2.04-1.79-3.13c-1.25-3.61-0.71-7.62,1.37-10.23c1.61-2.04,4.02-3.19,7-3.38
		c8.24-0.49,11.23,2.22,13.29,5.2c0.06,0.07,0.08,0.13,0.11,0.2c1.92,4.48,2.31,8.6,1.17,12.56c-0.14,0.56-0.69,0.94-1.35,0.94
		c-4.11,0-7.47-0.52-10.2-1.62c0.57,1.58,0.81,3.51,0.17,6.01c-1.94,7.63-8.58,8.76-11.41,8.88c-0.05,0.13-0.05,0.24-0.11,0.35
		c-0.37,1.39-0.67,2.5-0.29,3.32c1.29,2.8,6.49,2.57,6.54,2.57c0.43-0.03,0.87,0.11,1.15,0.4l3.64,3.63
		c0.33,0.33,0.43,0.81,0.25,1.24c-0.18,0.43-0.64,0.73-1.14,0.78l-1.44,0.16l2.83,4.37c0.25,0.33,0.25,0.77,0.04,1.15
		c-0.2,0.38-0.62,0.63-1.09,0.66l-1.7,0.18c0.34,1.33,0.55,3.39-0.21,5.87c-1.31,4.24-5.06,7.27-5.22,7.42
		c-0.09,0.06-0.2,0.11-0.32,0.17l-5.7,2.56c-0.19,0.1-0.42,0.14-0.62,0.14s-0.35,0-0.51-0.07c-0.39-0.13-0.68-0.4-0.85-0.72
		l-0.93-2.15l-3.54,1.99c-0.56,0.33-1.3,0.25-1.77-0.16c-0.15-0.19-4.11-3.87-2.78-9.57c0.9-3.81,5.28-4.09,8.15-4.26
		c0.89-0.06,2.3-0.14,2.71-0.36c-0.08-1.52-3.76-3.52-6.21-4.44c-0.17-0.04-0.36-0.15-0.5-0.27l-8.88-8.43l-5.8-1.36l5.93,10.04
		c0.29,0.48,0.2,1.06-0.25,1.44c-0.46,0.39-1.15,0.48-1.66,0.21l-3.61-1.75l1.63,3.86c0.21,0.54-0.03,1.18-0.61,1.47
		c-0.55,0.31-1.33,0.23-1.75-0.21c-0.03-0.01-2.77-2.55-7.47-3.72c-4.06-1.03-7.21-0.53-8.05-0.36l-3.3,2.12
		c-0.54,0.37-1.31,0.32-1.78-0.07l-2.91-2.31l-0.84,1.14c-0.2,0.28-0.53,0.52-0.92,0.57c-0.37,0.06-0.8-0.03-1.1-0.23
		c-0.13-0.06-2.43-1.62-3.25-3.94c-0.48-1.31-0.08-3.17,1.02-4.81c0.83-1.28,2.83-3.53,6.72-4.32c1.8-0.35,3.56-0.22,5.15,0.13
		c-1.99-2.72-3.46-6.21-1.6-9.42c0.77-1.4,2.04-2.44,3.76-3.12c-0.55-0.28-1.11-0.6-1.65-0.94c-3.24-2.19-4.37-4.64-4.72-5.62
		c-3.34-0.65-5.88-1.63-7.78-2.63c-0.06,0.04-0.08,0.08-0.12,0.11c-0.25,0.14-4.36,2.67-8.55,2.67c-0.59,0-1.19-0.07-1.77-0.18
		c1.08,4.51,1.92,9.08,1.92,13.4c0,5.41-1.25,9.81-3.84,13.48c-4.02,5.7-11.18,9.46-21.96,11.48c-2.51,0.45-4.74,0.97-6.73,1.51
		c-2.82,2.24-4.43,5.39-4.43,8.76c0,3.67,1.91,7.07,5.2,9.32c0.02,0.02,0.06,0.06,0.08,0.07c1.74,1.11,3.83,2.1,6.18,2.92
		c3.7,1.24,5.77,3.78,6.9,5.92c1.04-1.83,2.8-4.04,5.61-5.86c5.32-3.43,7.96-3.61,8.27-3.63h0.04c0.68,0,1.27,0.43,1.37,1.03
		c0.05,0.12,0.72,3.28,5.08,5.76c3.62,2.07,8.71,3.01,15.14,2.82c7.86-0.23,15.03-4.43,18.2-10.7c0.01-0.07,0.09-0.16,0.15-0.24
		c0.21-0.28,0.95-0.94,2.7-1.33c3.18-0.55,6.75,0.04,9.34,1.53c1.4,0.81,3.24,2.3,3.78,4.78c0.37,1.53,0.19,3.14-0.46,4.55
		c-0.41,0.87-1.07,1.63-1.76,2.44c-0.69,0.79-1.41,1.63-1.95,2.61c-1.01,1.84-0.59,3.86,1.06,5.03c1.56,1.13,3.85,1.08,5.65-0.14
		c0.72-0.47,0.85-1.35,0.33-1.96c-0.26-0.29-0.66-0.48-1.08-0.54c-0.32-0.03-0.68,0.04-0.98,0.18c-0.54,0.26-1.23,0.17-1.68-0.21
		c-0.45-0.39-0.54-1-0.25-1.46c0.4-0.62,0.91-1.21,1.43-1.83c0.76-0.87,1.62-1.86,2.16-3.02c0.79-1.67,1.07-3.59,0.79-5.41
		c-0.1-0.65,0.39-1.24,1.15-1.36c1.04-0.2,2-0.58,2.88-1.14c0.36-0.24,0.58-0.56,0.63-0.92c0.05-0.36-0.02-0.75-0.32-1.05
		c-0.23-0.29-0.61-0.48-1.03-0.53c-0.42-0.06-0.85,0.04-1.17,0.26c-1.07,0.69-2.35,0.88-3.58,0.47c-0.31-0.1-0.5-0.23-0.69-0.44
		c-0.83-1-1.9-1.91-3.17-2.64c-3.47-1.98-7.6-2.22-10.49-2.07c-0.07,0-0.14,0.01-0.23,0.03c-0.42,0.04-0.84-0.1-1.14-0.35
		c-0.29-0.26-0.43-0.63-0.4-0.98c0.04-0.52,0.07-1.02,0.07-1.52c0-6.28-5.84-11.39-12.97-11.39c-4.64,0-8.41,3.33-8.41,7.39
		c0,2.75,2.52,5,5.66,5c2.27,0,4.07-1.61,4.07-3.57c0-0.77-0.73-1.4-1.59-1.4c-0.74,0-1.39,0.46-1.56,1.1
		c-0.11,0.35-0.36,0.67-0.74,0.84c-0.41,0.17-0.86,0.17-1.25,0c-0.86-0.38-1.4-1.13-1.4-1.98c0-2.52,2.33-4.57,5.22-4.57
		c5.37,0,9.8,3.84,9.8,8.58c0,8.36-7.82,15.18-17.41,15.18c-12.24,0-16.84-6.28-18.5-10.03c-0.1-0.27-0.22-0.54-0.31-0.79
		c-1.41,0.98-2.92,1.88-4.52,2.66c-4.65,2.26-13.87,5.24-22.97-0.01c-3.7-2.13-5.17-5.83-3.88-9.67c1.35-3.94,5.14-6.68,9.24-6.68
		c6.25,0,9.08,3.62,9.08,7.21c0,3.93-4.15,6.05-7.11,6.05c-3.48,0-5.91-1.72-5.91-4.17c0-2.25,1.74-3.72,3.42-4.11
		c1.51-0.37,2.99,0.07,3.75,1.18c0.41,0.58,0.19,1.35-0.49,1.69c-0.67,0.37-1.51,0.16-1.92-0.41c-0.12-0.18-0.44-0.13-0.59-0.08
		c-0.66,0.15-1.36,0.76-1.36,1.73c0,1.26,1.69,1.72,3.1,1.72c1.43,0,4.27-1.07,4.27-3.6c0-2.3-1.63-4.75-6.24-4.75
		c-3.17,0-5.7,2.46-6.54,4.91c-0.94,2.81,0.06,5.38,2.74,6.9c7.88,4.56,15.93,1.9,20.06-0.08c1.96-0.94,3.67-2.05,5.14-3.18
		c-0.75-4.01,0.09-8.05,2.29-9.79c1.18-0.95,2.69-1.14,4.1-0.53c1.28,0.56,1.99,1.6,2.01,2.94c0.06,2.31-2.07,5.44-5.36,8.25
		c0.18,0.56,0.38,1.13,0.63,1.7c1.41,3.17,5.33,8.46,15.87,8.46c8.05,0,14.57-5.7,14.57-12.71c0-2.75-2.08-5.05-4.9-5.84
		c1.24,0.69,2.07,1.9,2.07,3.27c0,3.31-3.06,6.03-6.89,6.03c-4.68,0-8.49-3.34-8.49-7.46c0-5.43,5.05-9.83,11.24-9.83
		c8.69,0,15.79,6.2,15.79,13.84c0,0.1,0,0.2-0.01,0.32c3.17-0.04,7.33,0.42,10.94,2.52c1.38,0.82,2.6,1.76,3.56,2.86
		c0.22,0.01,0.42-0.05,0.62-0.19c0.95-0.63,2.11-0.88,3.25-0.72c1.17,0.15,2.21,0.67,2.93,1.5c0.69,0.82,0.99,1.84,0.83,2.87
		c-0.17,1.02-0.77,1.93-1.7,2.55c-0.89,0.58-1.83,1.01-2.81,1.3c0.1,1.92-0.27,3.82-1.13,5.59c-0.59,1.24-1.41,2.27-2.11,3.11
		c0.84,0.25,1.57,0.71,2.12,1.35c1.49,1.7,1.12,4.11-0.84,5.41c-1.43,0.95-3.06,1.46-4.74,1.46c-1.62,0-3.14-0.47-4.42-1.37
		c-2.63-1.9-3.36-5.12-1.79-8c0.65-1.22,1.49-2.19,2.23-3.04c0.61-0.72,1.13-1.34,1.4-1.9c0.43-0.95,0.57-2.05,0.32-3.09
		c-0.37-1.65-1.61-2.68-2.59-3.23c-1.99-1.17-4.74-1.59-7.18-1.17c-0.57,0.13-0.89,0.26-1.02,0.35c-3.64,7.03-11.7,11.7-20.56,11.97
		c-6.99,0.21-12.64-0.89-16.77-3.22c-3.63-2.07-5.23-4.64-5.85-6.14c-1.07,0.34-2.95,1.11-5.69,2.89c-4.97,3.2-6.01,7.81-6.01,7.85
		c-0.14,0.6-0.75,1.02-1.42,1.01c-0.69,0-1.27-0.46-1.37-1.05c0-0.06-1.03-5.73-6.44-7.58c-2.64-0.89-4.96-2.01-6.95-3.29
		c-0.05-0.05-0.14-0.1-0.19-0.18c-3.86-2.73-6.09-6.76-6.09-11.12c0-2.57,0.79-5.07,2.23-7.22c-3.62,1.3-6.12,2.6-7.75,3.67
		c-0.29,0.18-0.66,0.29-1.02,0.29c-0.34,0-0.71-0.11-1-0.29c-1.62-1.07-4.1-2.37-7.73-3.67c1.43,2.16,2.2,4.65,2.2,7.22
		c0,4.36-2.19,8.39-6.09,11.12c-0.04,0.08-0.12,0.13-0.2,0.18c-1.95,1.28-4.29,2.4-6.94,3.29c-5.39,1.85-6.44,7.53-6.44,7.58
		c-0.08,0.59-0.66,1.05-1.37,1.05c-0.7,0-1.27-0.41-1.41-1.01c0-0.04-1.07-4.69-5.98-7.85c-2.77-1.77-4.63-2.54-5.69-2.88
		c-0.66,1.5-2.25,4.06-5.89,6.13c-4.15,2.33-9.79,3.43-16.77,3.22c-8.88-0.27-16.89-4.95-20.59-11.97
		c-0.13-0.08-0.43-0.22-1.02-0.35c-2.42-0.43-5.17,0-7.16,1.17c-0.98,0.56-2.22,1.58-2.59,3.23c-0.26,1.04-0.11,2.14,0.31,3.09
		c0.29,0.56,0.82,1.18,1.43,1.9c0.74,0.85,1.57,1.82,2.21,3.04c1.56,2.88,0.87,6.1-1.8,8c-1.26,0.9-2.79,1.37-4.41,1.37
		c-1.66,0-3.3-0.51-4.73-1.46c-1.96-1.3-2.34-3.7-0.86-5.41c0.55-0.64,1.3-1.1,2.14-1.35c-0.71-0.85-1.53-1.88-2.11-3.11
		c-0.81-1.77-1.22-3.67-1.11-5.59c-1.01-0.3-1.96-0.73-2.82-1.33c-0.92-0.59-1.54-1.5-1.7-2.52c-0.18-1.03,0.11-2.04,0.84-2.87
		c0.7-0.83,1.73-1.35,2.9-1.5c1.14-0.14,2.32,0.09,3.29,0.72c0.19,0.15,0.39,0.2,0.58,0.19c0.99-1.1,2.2-2.05,3.6-2.86
		c3.59-2.1,7.75-2.56,10.91-2.52v-0.32c0-7.63,7.08-13.84,15.77-13.84c6.21,0,11.25,4.4,11.25,9.83c0,4.12-3.83,7.46-8.52,7.46
		c-3.77,0-6.84-2.72-6.84-6.03c0-1.37,0.8-2.58,2.06-3.27c-2.83,0.78-4.91,3.09-4.91,5.84c0,7.01,6.53,12.71,14.56,12.71
		c10.57,0,14.5-5.29,15.89-8.46c0.25-0.57,0.44-1.13,0.6-1.7c-3.28-2.81-5.4-5.93-5.35-8.25c0.04-1.34,0.77-2.38,2.04-2.94
		c1.41-0.62,2.89-0.42,4.08,0.53c2.21,1.73,3.04,5.77,2.3,9.79c1.46,1.13,3.22,2.24,5.15,3.18c4.11,1.98,12.18,4.64,20.05,0.08
		c2.67-1.52,3.68-4.09,2.72-6.9c-0.81-2.45-3.35-4.91-6.52-4.91c-4.62,0-6.26,2.44-6.26,4.75c0,2.52,2.85,3.6,4.29,3.6
		c1.41,0,3.07-0.46,3.07-1.72c0-0.97-0.69-1.58-1.35-1.73c-0.17-0.05-0.47-0.1-0.59,0.08c-0.39,0.57-1.27,0.78-1.96,0.41
		c-0.64-0.34-0.82-1.11-0.44-1.69c0.76-1.12,2.23-1.56,3.77-1.18c1.62,0.39,3.38,1.86,3.38,4.11c0,2.45-2.4,4.17-5.88,4.17
		c-2.97,0-7.12-2.12-7.12-6.05c0-3.59,2.81-7.21,9.09-7.21c4.07,0,7.86,2.74,9.23,6.68c1.31,3.83-0.19,7.53-3.9,9.67
		c-9.12,5.25-18.28,2.27-22.95,0.01c-1.6-0.78-3.11-1.68-4.52-2.66c-0.08,0.25-0.2,0.53-0.31,0.79
		c-1.66,3.74-6.25,10.03-18.51,10.03c-9.57,0-17.37-6.81-17.37-15.18c0-4.73,4.38-8.58,9.77-8.58c2.89,0,5.26,2.05,5.26,4.57
		c0,0.85-0.57,1.6-1.43,1.98c-0.41,0.17-0.85,0.17-1.22,0c-0.39-0.17-0.67-0.49-0.76-0.84c-0.16-0.64-0.82-1.1-1.58-1.1
		c-0.87,0-1.58,0.62-1.58,1.4c0,1.95,1.83,3.57,4.05,3.57c3.13,0,5.68-2.25,5.68-5c0-4.06-3.76-7.39-8.41-7.39
		c-7.13,0-12.97,5.11-12.97,11.39c0,0.49,0.03,1,0.08,1.52c0.05,0.35-0.1,0.71-0.42,0.98c-0.3,0.25-0.7,0.39-1.12,0.35
		c-0.09-0.02-0.17-0.03-0.25-0.03c-2.89-0.15-7.01,0.09-10.47,2.07c-1.27,0.74-2.37,1.64-3.18,2.64c-0.2,0.2-0.41,0.34-0.67,0.44
		c-1.22,0.4-2.51,0.22-3.59-0.47c-0.35-0.22-0.75-0.32-1.18-0.26c-0.43,0.06-0.8,0.24-1.04,0.53c-0.26,0.3-0.38,0.69-0.32,1.05
		c0.07,0.36,0.28,0.69,0.63,0.92c0.88,0.57,1.86,0.94,2.9,1.14c0.73,0.12,1.23,0.71,1.1,1.36c-0.26,1.82,0.03,3.74,0.83,5.41
		c0.55,1.16,1.41,2.16,2.15,3.02c0.54,0.63,1.04,1.22,1.44,1.83c0.28,0.46,0.2,1.07-0.25,1.46c-0.45,0.38-1.13,0.47-1.69,0.21
		c-0.3-0.15-0.62-0.21-0.98-0.18c-0.42,0.06-0.81,0.25-1.06,0.55c-0.52,0.59-0.38,1.47,0.31,1.94c1.79,1.23,4.1,1.27,5.66,0.14
		c1.63-1.17,2.07-3.18,1.06-5.03c-0.54-0.98-1.25-1.82-1.94-2.61c-0.71-0.81-1.36-1.58-1.78-2.44c-0.64-1.41-0.82-3.01-0.46-4.55
		c0.57-2.48,2.38-3.97,3.8-4.78c2.6-1.49,6.16-2.08,9.29-1.53c1.81,0.39,2.54,1.05,2.77,1.33c0.03,0.07,0.09,0.17,0.14,0.24
		c3.17,6.27,10.31,10.48,18.2,10.7c6.41,0.19,11.5-0.75,15.15-2.82c4.33-2.47,5.03-5.63,5.05-5.76c0.12-0.62,0.75-1.07,1.45-1.03
		c0.27,0.02,2.93,0.2,8.26,3.63c2.81,1.81,4.57,4.03,5.63,5.86c1.15-2.14,3.2-4.68,6.88-5.92c2.35-0.83,4.45-1.82,6.19-2.92
		c0.01-0.02,0.04-0.06,0.06-0.07c3.29-2.25,5.21-5.66,5.21-9.32c0-3.37-1.59-6.51-4.45-8.76c-1.98-0.54-4.21-1.05-6.72-1.51
		c-9.92-1.86-19.49-7.92-21.98-11.48c-2.54-3.67-3.8-8.06-3.8-13.48c0-4.29,0.81-8.85,1.91-13.33c-0.47,0.08-0.98,0.12-1.46,0.12
		c-4.19,0-8.32-2.53-8.56-2.67c-0.02-0.03-0.06-0.07-0.09-0.11c-1.88,1-4.44,1.98-7.82,2.63c-0.33,0.97-1.45,3.43-4.72,5.62
		c-0.53,0.34-1.07,0.66-1.63,0.94c1.7,0.68,2.99,1.72,3.78,3.12c1.85,3.21,0.38,6.7-1.61,9.42c1.57-0.35,3.33-0.48,5.14-0.13
		c3.88,0.79,5.89,3.04,6.73,4.32c1.08,1.64,1.49,3.49,1.01,4.81c-0.81,2.33-3.15,3.88-3.25,3.94c-0.32,0.2-0.71,0.29-1.12,0.23
		c-0.37-0.05-0.71-0.28-0.91-0.57l-0.82-1.14l-2.9,2.31c-0.52,0.4-1.26,0.44-1.79,0.07l-3.29-2.12c-0.86-0.17-4.05-0.67-8.09,0.36
		c-4.74,1.2-7.41,3.71-7.46,3.72c-0.45,0.43-1.2,0.52-1.75,0.21c-0.6-0.29-0.85-0.93-0.61-1.47l1.64-3.86l-3.61,1.75
		c-0.52,0.27-1.21,0.17-1.65-0.21c-0.46-0.38-0.56-0.96-0.28-1.44l5.95-10.04l-5.82,1.36l-8.91,8.43c-0.09,0.12-0.27,0.23-0.46,0.27
		c-2.5,0.93-6.16,2.96-6.22,4.44c0.41,0.22,1.8,0.3,2.7,0.36c2.9,0.16,7.24,0.44,8.16,4.26c1.34,5.7-2.62,9.39-2.79,9.57
		c-0.46,0.41-1.23,0.49-1.77,0.16l-3.55-1.99l-0.94,2.15c-0.13,0.31-0.42,0.58-0.81,0.72c-0.16,0.07-0.33,0.07-0.51,0.07
		c-0.21,0-0.43-0.04-0.64-0.14l-5.7-2.56c-0.08-0.06-0.2-0.11-0.29-0.17c-0.16-0.15-3.95-3.18-5.23-7.42
		c-0.79-2.48-0.56-4.54-0.2-5.87l-1.71-0.18c-0.47-0.04-0.88-0.29-1.09-0.66c-0.23-0.38-0.19-0.82,0.03-1.15l2.83-4.37l-1.46-0.16
		c-0.5-0.06-0.94-0.35-1.14-0.78c-0.16-0.43-0.08-0.91,0.28-1.24l3.63-3.63c0.3-0.29,0.71-0.43,1.15-0.4c0.04,0,5.22,0.25,6.54-2.57
		c0.38-0.83,0.07-1.93-0.29-3.32c-0.05-0.12-0.08-0.23-0.11-0.35c-2.81-0.13-9.45-1.25-11.41-8.88c-0.63-2.51-0.41-4.43,0.16-6.01
		c-2.7,1.09-6.11,1.62-10.2,1.62c-0.65,0-1.2-0.38-1.37-0.94c-1.12-3.96-0.74-8.08,1.18-12.56c0.04-0.07,0.05-0.13,0.11-0.2
		c2.06-2.98,5.08-5.69,13.32-5.2c2.96,0.18,5.37,1.34,6.99,3.38c2.07,2.61,2.62,6.62,1.39,10.21c-0.42,1.12-1.13,2.15-1.81,3.16
		c-1.49,2.15-2.35,3.6-1.71,5.16c0.23,0.21,0.46,0.42,0.66,0.65c0.72,0.73,1.47,1.47,2.33,1.76c0.18,0,0.37,0.01,0.56,0.02
		c0.79-1.84,2.27-3.88,4.82-6.1c0.88-0.76,1.74-1.48,2.59-2.17c3.29-2.74,6.39-5.29,7.61-8.81l-0.44-4.79
		c-0.86-0.71-1.68-1.5-2.35-2.4c-0.11-0.13-0.2-0.25-0.28-0.4c-0.67,0.79-1.6,1.37-2.74,1.79c-1.09,0.41-2.31,0.61-3.56,0.61
		c-2.87,0-5.89-1.03-7.95-2.82c-4.19-3.66-4.63-4.94-4.01-5.83c0.24-0.4,0.8-0.62,1.35-0.58c0,0,1.35,0.1,3.1-0.06
		c-2.86-2.22-3.85-6-3.92-6.23c-0.1-0.4,0.04-0.81,0.36-1.12c0.33-0.3,0.81-0.43,1.28-0.37c0.08,0,1.97,0.25,3.61-0.96
		c0.65-0.48,1.13-1.11,1.53-1.9c-0.57,0.05-1.14,0.11-1.69,0.11 M197.69,138.26c0.13-2.7-0.62-4.93-1.63-5.73
		c-0.2-0.15-0.38-0.22-0.55-0.22c-0.12,0-0.24,0.06-0.37,0.12c-0.25,0.06-0.48,0.24-0.5,0.76
		C194.63,134.33,195.71,136.23,197.69,138.26z M288.9,138.26c2-2.03,3.1-3.94,3.05-5.08c0-0.52-0.24-0.69-0.49-0.76
		c-0.12-0.06-0.24-0.12-0.39-0.12c-0.13,0-0.32,0.07-0.52,0.22C289.56,133.33,288.78,135.57,288.9,138.26z M349.91,44.28
		c-0.72,0.71-1.55,1.32-2.48,1.73c1.23,1.17,1.91,2.46,1.91,3.59c0,0.79,0.03,1.5,0.11,2.16c1.06,0.56,3.09,0.5,4.53,0.29
		C354.02,50.15,353.67,45.79,349.91,44.28z M310.94,51.65c2.57-1.13,5.39-2.34,8.23-2.4c-0.87-0.53-2.02-0.88-3.41-0.88
		c-5.13,0-5.83,3.16-5.83,3.17c-0.05,0.29-0.21,0.53-0.46,0.71C309.95,52.05,310.44,51.85,310.94,51.65z M321.18,51.95
		c-2.43-0.71-5.2,0.26-7.95,1.44c0.22,0.06,0.41,0.17,0.56,0.32c0.28,0.23,2.84,2.41,5.98,0.66
		C321.09,53.67,321.24,52.66,321.18,51.95z M312.45,72.25c1.51-0.84,3.17-1.66,5.05-2.43c1.08-2.15,2.75-4.09,4.86-5.69
		c0.6-0.43,1.49-0.38,2,0.14c0.51,0.53,0.44,1.31-0.17,1.73c-4.25,3.18-6.2,8-5.32,12.45c0.1-0.21,0.3-0.44,0.54-0.64
		c1.05-0.94,2.11-1.77,3.11-2.63c2.75-2.2,5.33-4.3,7.15-7.17c0.39-0.61,1.26-0.78,1.94-0.47c0.66,0.33,0.89,1.09,0.53,1.69
		c-2.03,3.2-4.75,5.42-7.67,7.76c-0.12,0.09-0.21,0.19-0.32,0.26c3.35-0.54,9.37-2.06,12.62-6.22c0.63-0.83,1.04-1.77,1.31-2.78
		c0-0.02,0-0.04,0.01-0.07c1.39-5.97-3.47-13.95-3.49-14.01c-0.4-0.61-0.14-1.37,0.54-1.69c0.69-0.33,1.53-0.12,1.9,0.5
		c0.27,0.41,5.34,8.71,3.83,15.59c0.02,1.41,0.79,2.43,2.3,2.96c2.55,0.94,6.32,0.19,8.44-1.64c1.08-0.97,1.83-1.67,2.35-2.23
		c-3.77-0.16-10.51-1.22-12.69-6.65c-0.26-0.64,0.14-1.35,0.85-1.58c0.75-0.21,1.55,0.13,1.79,0.76c0.86,2.1,2.76,3.34,4.79,4.04
		c2.76-0.14,4.36-2.71,5.1-4.41c-1.09-0.16-2.49-0.53-3.76-1.46c-1.71-1.26-2.78-3.18-3.28-5.71c-0.14-0.94-0.21-1.95-0.21-3.05
		c0-1.41-2.55-3.94-7.65-3.94c-0.78,0-1.39-0.57-1.39-1.24c0-0.68,0.62-1.24,1.39-1.24c2.23,0,4.1,0.4,5.63,1.03
		c1.49-0.08,2.73-0.87,3.69-1.97c0.07-0.09,0.12-0.17,0.23-0.26c0.23-0.32,0.48-0.64,0.68-0.99c-3.24,0.5-6.99-0.84-9.56-2.05
		c-0.3,3.48-3.33,4.55-4.98,4.6h-0.06c-0.75,0-1.35-0.53-1.42-1.17c-0.02-0.69,0.58-1.24,1.34-1.29c0.57-0.02,2.36-0.33,2.36-2.74
		c0-1.84,0.09-3.15,0.19-4.04c-2.13,0-6.1,0.32-8.3,2.63c-0.5,0.53-1.4,0.6-1.99,0.16c-0.58-0.45-0.68-1.22-0.17-1.74
		c0.23-0.26,0.48-0.48,0.75-0.7c-2.18,0.13-3.68,1.86-3.76,1.97c-0.18,0.24-0.5,0.41-0.83,0.47c-0.09,0.04-9.01,1.86-12.87,2.94
		c-1.52,0.45-2.74,0.74-3.57,0.94c0,0.78,0.07,1.51,0.22,1.75l0.83,0.71c0.25,0.23,0.42,0.56,0.39,0.9
		c-0.01,0.36-0.19,0.68-0.51,0.9c-0.11,0.09-0.76,0.71-0.06,1.97c0.39,0.66,0.77,1.24,1.13,1.71c1.23-1.53,3.55-3.02,7.51-3.02
		c4.39,0,7.18,2.41,8,4.8c0.76,2.3-0.2,4.48-2.47,5.75c-3.01,1.68-5.92,1.06-7.84,0.08l-1.02,2.39l0.57,1.76
		c1.85,0.09,6.34-0.09,10.46-3.03c0.6-0.41,1.49-0.33,1.98,0.18c0.49,0.55,0.39,1.32-0.2,1.75c-1.48,1.07-2.96,1.79-4.42,2.35
		c-0.05,0.03-0.1,0.08-0.12,0.11c-0.92,0.8-1.87,1.46-2.77,2.12c-2.08,1.47-3.87,2.76-4.69,4.86
		C312.84,70,312.56,71.11,312.45,72.25z M296.33,67.67c0.01,0.05,1.87,5.63,6.44,8.44c3.53,0.01,8.71,0.27,12.81,1.51
		c0.1,0.04,0.24,0.09,0.34,0.15c-0.15-1.55-0.08-3.11,0.3-4.63c-1.63,0.81-3.1,1.62-4.42,2.53c-0.26,0.17-0.55,0.24-0.86,0.24
		c-0.19,0-0.41-0.04-0.58-0.12c-0.48-0.18-0.79-0.6-0.82-1.06c-0.06-0.85-0.03-1.7,0.06-2.52V72.2c-0.25-0.15-5.5-3.87-7.71-10.96
		c-1.33-4.32-7.31-5.11-10.17-5.23l0.25,1.32c0.04,0.3,0,0.6-0.19,0.84l-1.79,2.6l1.29,0.86c0.54,0.38,0.69,1.03,0.36,1.59
		l-1.38,2.22c0.92,0.65,2.09,1.33,2.8,1.33h1.9C295.58,66.77,296.16,67.16,296.33,67.67z M177.31,72.22
		c0.07,0.82,0.08,1.68,0.07,2.52c0,0.46-0.36,0.88-0.81,1.06c-0.2,0.08-0.42,0.12-0.61,0.12c-0.31,0-0.62-0.07-0.88-0.24
		c-1.32-0.91-2.76-1.72-4.42-2.53c0.38,1.52,0.48,3.08,0.31,4.63c0.14-0.06,0.24-0.11,0.36-0.15c4.08-1.24,9.26-1.5,12.8-1.51
		c4.57-2.82,6.41-8.38,6.43-8.44c0.16-0.52,0.72-0.9,1.36-0.9h1.94c0.69,0,1.86-0.67,2.8-1.33l-1.42-2.22
		c-0.32-0.56-0.18-1.21,0.38-1.59l1.29-0.86l-1.79-2.6c-0.18-0.24-0.27-0.54-0.18-0.84l0.24-1.32c-2.89,0.12-8.84,0.94-10.18,5.23
		c-2.19,7.09-7.48,10.81-7.69,10.96C177.32,72.22,177.31,72.22,177.31,72.22z M167.12,54.37c3.13,1.75,5.73-0.43,6-0.66
		c0.16-0.17,0.35-0.26,0.56-0.32c-2.75-1.18-5.53-2.15-7.94-1.44C165.66,52.66,165.84,53.67,167.12,54.37z M177.43,52.26
		c-0.22-0.18-0.4-0.42-0.46-0.71c-0.06-0.3-0.88-3.17-5.8-3.17c-1.42,0-2.58,0.35-3.45,0.88c2.84,0.05,5.67,1.26,8.26,2.4
		C176.48,51.85,176.97,52.05,177.43,52.26z M137.45,51.76c0.08-0.65,0.13-1.36,0.13-2.16c0-1.12,0.67-2.42,1.91-3.59
		c-0.95-0.41-1.75-1.02-2.5-1.73c-3.76,1.51-4.1,5.87-4.07,7.77C134.38,52.24,136.4,52.32,137.45,51.76z M150.17,71.04
		c3.27,4.19,9.28,5.69,12.64,6.22c-0.13-0.07-0.24-0.18-0.36-0.26c-2.87-2.33-5.62-4.56-7.66-7.76c-0.37-0.6-0.14-1.36,0.54-1.69
		c0.69-0.31,1.54-0.14,1.92,0.47c1.82,2.87,4.41,4.97,7.14,7.17c1.03,0.85,2.08,1.69,3.14,2.63c0.24,0.19,0.4,0.43,0.55,0.64
		c0.87-4.45-1.09-9.27-5.34-12.45c-0.58-0.42-0.66-1.21-0.19-1.73c0.52-0.52,1.39-0.57,1.98-0.14c2.16,1.6,3.81,3.54,4.91,5.69
		c1.88,0.77,3.52,1.59,5.05,2.43c-0.14-1.14-0.41-2.25-0.78-3.24c-0.81-2.1-2.62-3.39-4.71-4.86c-0.91-0.66-1.86-1.32-2.77-2.12
		c-0.05-0.03-0.08-0.07-0.13-0.11c-1.43-0.56-2.93-1.28-4.41-2.35c-0.6-0.43-0.7-1.2-0.19-1.75c0.48-0.51,1.38-0.59,1.99-0.18
		c4.11,2.99,8.58,3.13,10.41,3.06l0.59-1.79l-1-2.39c-1.91,0.99-4.86,1.6-7.86-0.08c-2.27-1.26-3.2-3.45-2.45-5.75
		c0.78-2.39,3.57-4.8,8.01-4.8c3.92,0,6.26,1.49,7.5,3.02c0.35-0.47,0.73-1.05,1.11-1.71c0.72-1.26,0.07-1.88-0.08-2
		c-0.31-0.23-0.47-0.53-0.51-0.88c0-0.35,0.17-0.68,0.44-0.9l0.82-0.71c0.13-0.24,0.25-0.97,0.25-1.75
		c-0.88-0.2-2.07-0.49-3.61-0.94c-3.85-1.08-12.78-2.91-12.87-2.94c-0.31-0.06-0.61-0.23-0.8-0.47c-0.2-0.23-1.68-1.85-3.78-1.97
		c0.26,0.22,0.51,0.43,0.76,0.7c0.49,0.52,0.42,1.29-0.16,1.74c-0.61,0.44-1.49,0.37-1.99-0.16c-0.69-0.71-1.51-1.22-2.4-1.58
		c-0.02-0.02-0.02-0.02-0.04-0.03c-2.05-0.87-4.39-1.01-5.88-1.01c0.13,0.89,0.23,2.21,0.23,4.04c0,2.59,2.06,2.74,2.29,2.74
		c0.79,0.02,1.37,0.59,1.35,1.29c-0.01,0.64-0.63,1.17-1.41,1.17h-0.03c-1.64-0.05-4.69-1.11-5.01-4.6
		c-2.55,1.21-6.3,2.54-9.58,2.05c0.25,0.34,0.48,0.66,0.73,0.99c0.06,0.09,0.16,0.17,0.21,0.26c0.98,1.1,2.22,1.89,3.7,1.97
		c1.54-0.63,3.41-1.03,5.61-1.03c0.78,0,1.43,0.56,1.43,1.24c0,0.68-0.65,1.24-1.43,1.24c-5.07,0-7.62,2.53-7.62,3.94
		c0,1.11-0.1,2.11-0.25,3.05c-0.47,2.53-1.55,4.45-3.27,5.71c-1.27,0.93-2.66,1.3-3.77,1.46c0.76,1.7,2.35,4.27,5.11,4.41
		c2.06-0.7,3.96-1.94,4.8-4.04c0.27-0.63,1.07-0.99,1.78-0.76c0.77,0.23,1.14,0.94,0.88,1.58c-2.17,5.43-8.94,6.49-12.7,6.65
		c0.51,0.56,1.24,1.26,2.36,2.23c2.11,1.83,5.9,2.58,8.44,1.64c1.53-0.52,2.29-1.55,2.29-2.96c-1.49-6.87,3.58-15.18,3.83-15.59
		c0.36-0.62,1.24-0.83,1.89-0.5c0.69,0.31,0.95,1.08,0.58,1.69c-0.07,0.07-4.92,8.06-3.5,14.06v0.03
		C149.11,69.26,149.51,70.2,150.17,71.04z M134.91,102.06c-0.11-0.9-0.12-1.86,0.03-2.91h-0.11c-0.16,0-0.3-0.02-0.45-0.06
		c-1.64-0.47-2.81-1.62-3.7-2.52c-0.29-0.25-0.55-0.52-0.78-0.73c-0.13-0.11-0.23-0.24-0.32-0.4c-1.42-2.91,0.37-5.52,1.81-7.62
		c0.64-0.93,1.24-1.78,1.55-2.61c0.96-2.86,0.56-6.03-1.02-8.06c-1.11-1.41-2.76-2.2-4.89-2.33c-6.96-0.39-9.1,1.69-10.62,3.92
		c-1.52,3.61-1.96,6.9-1.28,10.06c6.32-0.18,10.47-1.82,12.68-5.02c0.66-1.28,0.78-2.64-0.07-4.72c-0.31-0.62,0.07-1.33,0.78-1.57
		c0.74-0.25,1.54,0.08,1.84,0.72c1.21,2.85,0.88,4.89,0,6.59v0c-0.43,0.89-1.01,1.7-1.59,2.46c-1.54,2.06-2.99,4.02-1.98,7.87
		C128.2,100.66,132.57,101.83,134.91,102.06z M170.56,97.94c-3.23,0.84-6.25,0.84-7.89,0.74c-0.58,1.72-2.1,5.28-5.39,9.04
		l4.85-1.13c0.54-0.12,1.11,0.03,1.44,0.41c0.35,0.38,0.43,0.91,0.16,1.34l-5.28,8.93l2.85-1.38c0.49-0.24,1.15-0.17,1.59,0.16
		c0.43,0.34,0.61,0.87,0.4,1.35l-1.27,3.03c1.3-0.65,2.87-1.29,4.74-1.78c5.52-1.39,9.68-0.34,9.86-0.31
		c0.18,0.06,0.31,0.11,0.43,0.18l2.58,1.69l3.28-2.63c0.33-0.25,0.73-0.38,1.16-0.32c0.42,0.07,0.8,0.24,0.99,0.57l0.8,1.12
		c0.48-0.46,0.91-1.06,1.17-1.75c0.18-0.54-0.03-1.7-0.77-2.85c-0.63-0.92-2.06-2.56-4.93-3.13c-4.58-0.89-9.24,2.57-9.27,2.61
		c-0.59,0.43-1.48,0.39-1.97-0.12c-0.5-0.52-0.46-1.3,0.12-1.76c0.08-0.04,8.44-6.53,5.7-11.33c-0.79-1.41-2.47-2.27-4.97-2.62
		C170.8,98,170.67,97.99,170.56,97.94z M199.46,87.18c2.04-0.84,2.95-1.55,3.34-1.97l-1.7-1.85c-0.34-0.38-0.41-0.88-0.18-1.31
		l1.33-2.4l-3.32-1.98c-0.41-0.26-0.65-0.7-0.6-1.14l0.22-1.82c-1.25-0.18-3.32-0.22-4.89,1.15c-3.1,2.72-5.02,2.84-5.68,2.79
		c-0.18,0-1.36-0.09-3.07-0.09c-0.19,0.09-0.37,0.13-0.57,0.13c-0.2,0-0.39-0.04-0.56-0.13c-3.34,0.04-7.96,0.31-11.55,1.37
		c-0.57,0.16-1.18-0.01-1.56-0.41c-0.29,1.16-0.73,2.28-1.34,3.37c-0.04,0.05-0.06,0.09-0.09,0.15c-0.09,0.1-0.21,0.21-0.34,0.3
		c-0.03,0.02-0.07,0.05-0.1,0.06v0.01c-0.12,0.05-0.2,0.08-0.29,0.11c-0.14,0.04-0.29,0.06-0.43,0.06h-0.01
		c-0.07,0-0.15,0-0.24-0.01c-0.16-0.03-0.33-0.07-0.47-0.16c-0.05-0.01-0.1-0.02-0.1-0.02c-1.86-1.1-1.79-2.53-1.74-3.31
		c0.01-0.05,0.01-0.11,0.01-0.15c-0.13,0.04-0.29,0.07-0.48,0.07h-0.03c-0.35-0.03-6.43-0.35-11.82-3.21l0.26,2.83
		c0.01,0.15,0,0.31-0.05,0.45c-1.39,4.26-4.82,7.09-8.46,10.12c-0.82,0.67-1.69,1.4-2.53,2.12c-2.42,2.15-3.73,4.04-4.33,5.69
		c0,0.09-0.02,0.16-0.04,0.26c-0.02,0.16-0.11,0.28-0.18,0.4c-0.57,2.13-0.08,3.96,0.37,5.64c0.43,1.67,0.87,3.27,0.16,4.82
		c-1.71,3.68-6.72,4.09-8.61,4.1l-1.44,1.47l0.9,0.08c0.46,0.03,0.88,0.29,1.06,0.66c0.2,0.36,0.2,0.8-0.03,1.16l-2.81,4.35
		l1.28,0.12c0.46,0.06,0.85,0.29,1.07,0.62c0.2,0.38,0.23,0.78,0.06,1.15c-0.08,0.09-1.29,2.36-0.21,5.76
		c0.96,3.14,3.68,5.58,4.29,6.11l4.09,1.83l0.98-2.29c0.15-0.33,0.48-0.61,0.87-0.74c0.41-0.09,0.86-0.06,1.2,0.15l3.91,2.2
		c0.85-1.16,2.11-3.48,1.38-6.54c-0.45-1.85-2.49-2.12-5.59-2.31c-2.23-0.13-5.29-0.33-5.29-2.81c0-3.44,5.85-5.9,7.64-6.61
		l8.98-8.47l0.01-0.01c0,0,0-0.01,0.01-0.02c6.45-5.66,8.03-11.95,8.05-12.01c0.14-0.63,0.82-1.05,1.57-0.96
		c0.1,0.01,7.44,0.92,12.74-2.64c1.64-1.1,2.6-2.27,3.14-3.15c-1.68,0.16-3.5,0.28-5.5,0.28c-1.57,0-3.23-0.05-5.01-0.22
		c-0.76-0.03-1.35-0.63-1.27-1.3c0.06-0.68,0.73-1.19,1.5-1.12c18.74,1.41,23.62-5.68,23.66-5.74c0.42-0.59,1.24-0.8,1.93-0.46
		c0.68,0.34,0.89,1.08,0.52,1.69c-0.07,0.11-0.74,1.08-2.29,2.23C193.14,86.73,196.92,88.24,199.46,87.18z M286.2,103.23
		c0-4.79-1.03-9.91-2.4-15.02c-2.35-1.42-2.71-2.58-2.74-3.11c-0.01-0.31,0.1-0.59,0.31-0.82l1.01-1.12
		c-0.16-0.56-0.32-1.11-0.47-1.66l-1.47-5.12c-0.94-3.49-1.4-6.75-1.4-9.77c0-7.32,2.77-11.99,5.5-14.78
		c-1.48-1.33-3.05-2.87-4.35-4.18c-0.67-0.65-1.29-1.27-1.73-1.68h-70.3c-0.44,0.41-1.06,1.03-1.74,1.68
		c-1.29,1.31-2.86,2.86-4.35,4.18c2.75,2.79,5.52,7.46,5.52,14.78c0,3.02-0.48,6.28-1.43,9.75l-0.75,2.62
		c0.07,0.26,0.04,0.55-0.1,0.79l-0.24,0.43l-0.37,1.27c-0.14,0.48-0.27,0.98-0.42,1.46l1.25,1.34c0.22,0.23,0.35,0.51,0.33,0.82
		c-0.02,0.53-0.42,1.78-3.1,3.32c-1.34,5.03-2.36,10.05-2.36,14.81c0,4.86,1.07,8.74,3.31,11.93c1.76,2.5,10.36,8.35,19.81,10.14
		c10.22,1.9,16.29,4.53,19.77,6.6c3.49-2.07,9.59-4.7,19.81-6.6c9.83-1.85,16.32-5.16,19.8-10.14
		C285.16,111.97,286.2,108.08,286.2,103.23z M323.33,107.01c0.33-0.38,0.91-0.53,1.46-0.41l4.8,1.13c-3.26-3.77-4.77-7.32-5.36-9.04
		c-1.65,0.1-4.68,0.1-7.91-0.74c-0.11,0.05-0.19,0.06-0.33,0.08c-2.51,0.35-4.19,1.21-4.99,2.62c-2.72,4.75,5.62,11.29,5.71,11.33
		c0.57,0.46,0.67,1.24,0.13,1.76c-0.49,0.51-1.39,0.56-1.98,0.12c-0.04-0.04-4.71-3.5-9.3-2.61c-2.83,0.57-4.28,2.21-4.9,3.13
		c-0.77,1.15-0.97,2.31-0.77,2.85c0.22,0.68,0.7,1.28,1.15,1.75l0.79-1.12c0.23-0.33,0.58-0.5,1.01-0.57
		c0.41-0.06,0.83,0.07,1.12,0.32l3.32,2.63l2.57-1.69c0.11-0.08,0.26-0.13,0.42-0.18c0.19-0.03,4.38-1.08,9.87,0.31
		c1.85,0.49,3.45,1.13,4.73,1.78l-1.26-3.03c-0.23-0.49-0.05-1.02,0.4-1.35c0.45-0.33,1.06-0.41,1.6-0.16l2.84,1.38l-5.29-8.93
		C322.89,107.92,322.97,107.39,323.33,107.01z M348.46,109.15c-0.7-1.55-0.3-3.15,0.17-4.82c0.45-1.69,0.96-3.51,0.38-5.64
		c-0.09-0.12-0.16-0.24-0.18-0.4c-0.02-0.1-0.03-0.17-0.03-0.26c-0.59-1.66-1.91-3.54-4.31-5.69c-0.86-0.72-1.72-1.45-2.56-2.12
		c-3.62-3.02-7.06-5.86-8.46-10.12c-0.05-0.15-0.06-0.3-0.05-0.45l0.26-2.83c-5.37,2.86-11.45,3.17-11.78,3.21h-0.1
		c-0.16,0-0.29-0.03-0.45-0.07c0,0.04,0.03,0.1,0.03,0.15c0.04,0.77,0.13,2.21-1.74,3.31l-0.05,0.01c-0.17,0.09-0.33,0.14-0.55,0.18
		h-0.23c-0.15,0-0.31-0.02-0.45-0.07c-0.09-0.02-0.16-0.05-0.22-0.09l-0.05-0.01l-0.05-0.01v-0.01c-0.13-0.1-0.25-0.22-0.36-0.35
		h-0.04c-0.01-0.04-0.04-0.08-0.06-0.13c-0.62-1.09-1.08-2.21-1.37-3.37c-0.38,0.39-0.97,0.57-1.56,0.41
		c-3.55-1.07-8.19-1.34-11.51-1.37c-0.2,0.09-0.39,0.13-0.59,0.13c-0.2,0-0.39-0.04-0.59-0.13c-1.68,0-2.87,0.09-3.05,0.09
		c-0.65,0.05-2.6-0.07-5.67-2.79c-1.56-1.37-3.65-1.34-4.89-1.15l0.2,1.82c0.08,0.44-0.18,0.88-0.6,1.14l-3.3,1.98l1.32,2.4
		c0.25,0.42,0.16,0.93-0.17,1.31l-1.69,1.85c0.38,0.42,1.26,1.12,3.32,1.97c2.54,1.06,6.32-0.45,8.24-1.47
		c-1.59-1.16-2.25-2.12-2.31-2.23c-0.4-0.61-0.16-1.35,0.5-1.69c0.66-0.34,1.52-0.13,1.91,0.45c0.07,0.13,5.2,7.15,23.66,5.75
		c0.79-0.07,1.45,0.44,1.53,1.12c0.08,0.67-0.5,1.27-1.27,1.3c-1.77,0.17-3.45,0.22-5.02,0.22c-2,0-3.84-0.11-5.5-0.28
		c0.52,0.86,1.48,2.04,3.14,3.15c5.35,3.58,12.68,2.65,12.74,2.64c0.75-0.09,1.44,0.33,1.59,0.96c0.02,0.06,1.58,6.35,8.02,12.01
		c0.04,0.01,0.04,0.02,0.04,0.02l0.02,0.01l8.95,8.47c1.83,0.71,7.67,3.17,7.67,6.61c0,2.48-3.06,2.68-5.33,2.81
		c-3.09,0.19-5.15,0.46-5.58,2.31c-0.71,3.06,0.53,5.39,1.36,6.54l3.92-2.2c0.38-0.21,0.81-0.24,1.21-0.15
		c0.38,0.13,0.72,0.4,0.88,0.74l0.98,2.29l4.12-1.83c0.59-0.52,3.31-2.98,4.28-6.11c1.04-3.39-0.18-5.67-0.21-5.76
		c-0.17-0.36-0.17-0.8,0.03-1.15c0.22-0.33,0.63-0.58,1.08-0.62l1.28-0.12l-2.83-4.35c-0.22-0.36-0.25-0.8-0.02-1.16
		c0.2-0.36,0.6-0.63,1.08-0.66l0.88-0.08l-1.44-1.47C355.17,113.24,350.18,112.82,348.46,109.15z M370.53,78.73
		c-1.58-2.23-3.69-4.31-10.66-3.92c-2.09,0.13-3.75,0.92-4.86,2.33c-1.63,2.02-2.01,5.19-1.01,8.1c0.31,0.78,0.91,1.64,1.53,2.57
		c1.45,2.1,3.24,4.71,1.79,7.62c-0.06,0.16-0.17,0.29-0.3,0.4c-0.25,0.22-0.52,0.48-0.76,0.73c-0.93,0.9-2.08,2.05-3.71,2.52
		c-0.17,0.04-0.31,0.06-0.48,0.06h-0.09c0.19,1.05,0.15,2,0.01,2.91c2.36-0.23,6.74-1.4,8.15-6.94c0.98-3.85-0.46-5.81-2.01-7.87
		c-0.56-0.76-1.13-1.57-1.57-2.46v0c-0.86-1.7-1.23-3.74,0.02-6.59c0.27-0.64,1.07-0.97,1.82-0.72c0.71,0.24,1.08,0.95,0.8,1.57
		c-0.89,2.08-0.75,3.44-0.09,4.72c2.22,3.2,6.37,4.84,12.67,5.02C372.47,85.63,372.03,82.34,370.53,78.73z M326.39,41.24
		c0,0,0.77,0.45,1.75,1.33c0.59,0.51,1.21,2.02,1.46,2.91c0.18,0.54,0.75,0.93,1.38,0.93c0.11,0,0.25-0.04,0.32-0.04
		c0.77-0.17,1.23-0.85,1.06-1.5c-0.15-0.48-0.88-2.86-2.23-4.04c-0.08-0.09-0.18-0.18-0.29-0.26l3.24-1.2
		c0.72-0.27,1.06-0.99,0.74-1.61c-0.3-0.62-1.14-0.94-1.83-0.68l-5.37,1.98c-0.47,0.18-0.8,0.59-0.87,1.02
		C325.71,40.55,325.95,40.98,326.39,41.24z M299.04,146.82c-0.28,0.64,0.09,1.34,0.79,1.56c1.95,0.69,3.8,0.96,5.42,0.96
		c4.91,0,8.01-2.4,8.19-2.52c0.56-0.48,0.59-1.25,0.09-1.76c-0.54-0.52-1.41-0.53-2-0.07c0,0-4.24,3.3-10.68,1.12
		C300.12,145.86,299.32,146.19,299.04,146.82z M333.97,155.88c1.41-2.21,0.87-3.71,0.4-4.39c-0.69-0.99-2-1.62-3.43-1.58
		c-1.5,0.02-2.87,0.72-3.56,1.82c-0.04,0.07-5.48,8.45-14.5,10.09c-0.76,0.14-1.25,0.79-1.08,1.47c0.13,0.58,0.72,0.97,1.36,0.97
		c0.11,0,0.2-0.01,0.32-0.03c10.24-1.88,16.12-10.92,16.37-11.32c0.34-0.49,0.96-0.56,1.15-0.56c0.3,0,0.76,0.1,0.93,0.39
		c0.28,0.37,0.11,1.08-0.44,1.92c-0.38,0.61-0.14,1.34,0.55,1.68C332.72,156.69,333.58,156.49,333.97,155.88z M279.91,112.22
		c-3.29,4.44-9.26,7.42-18.18,9.09c-9.52,1.77-15.19,4.22-18.44,6.15c-3.24-1.93-8.9-4.37-18.41-6.15
		c-8.8-1.66-16.8-7.11-18.44-9.44c-0.14-0.2-0.27-0.42-0.4-0.63c3.78,2.53,10.2,5.64,17.08,6.82c10.42,1.77,16.62,4.22,20.18,6.15
		c3.56-1.93,9.78-4.37,20.22-6.15C270.68,116.84,276.1,114.91,279.91,112.22z M243.45,161.63c-0.3,0-0.61-0.11-0.85-0.32l-7.6-6.74
		c-0.46-0.41-0.56-1.1-0.24-1.63l7.6-12.23c0.46-0.75,1.7-0.75,2.17,0l7.6,12.23c0.33,0.53,0.23,1.21-0.24,1.63l-7.6,6.74
		C244.05,161.52,243.75,161.63,243.45,161.63z M237.5,153.37l5.95,5.28l5.95-5.28l-5.95-9.58L237.5,153.37z"/>
	<g>
		<path fill="#B09C55" d="M99.13,208.11c0,0.36-0.17,0.79-0.28,1.15c-0.11,0.36-0.1,0.67,0.04,0.91c0.31,0.61,0.62,1.16,0.93,1.77
			c0.12,0.37,0.23,0.37,0.61,0.12c0.56-0.36,1.02-0.78,1.24-1.45c0.63-1.58,1.53-3.09,2.54-4.55c0.92-1.21,1.88-2.36,2.99-3.33
			c1.37-1.21,2.92-1.75,4.61-1.62c0.62,0,0.71,0.19,0.5,0.85c-0.6,2.55-1.79,4.86-3.14,7.04c-1.48,2.36-3.16,4.48-5.14,6.36
			c-1.12,1.03-2.32,1.87-3.58,2.72c-0.56,0.36-1.13,0.72-1.69,1.09c-1.43,0.84-2.95,1.5-4.44,2.04c-1.03,0.42-2.07,0.54-3.11,0.71
			c-0.69,0.06-0.74,0-0.64-0.67c0.16-1.09,0.6-2.13,1.09-3.16c0.87-1.7,1.9-3.27,3.04-4.85c1.27-1.7,2.66-3.39,4.08-4.97
			c0.07-0.06,0.19-0.12,0.25-0.18C99.01,208.11,99.07,208.11,99.13,208.11z M117.24,204.5c0.03-0.18,0.05-0.36,0.08-0.55
			c0.2-1.34,0.05-2.62-0.64-3.72c-0.82-1.34-1.77-2.62-2.92-3.66c-0.69-0.73-1.66-1.04-2.77-0.86c-1.44,0.17-2.84,0.77-4.12,1.74
			c-1.14,0.78-2.29,1.69-3.26,2.84c-0.27,0.3-0.33,0.3-0.58,0.06c-0.28-0.43-0.68-0.79-1.08-1.16c-0.69-0.73-1.53-0.8-2.53-0.13
			c-1.47,1.08-2.88,2.23-4.26,3.5c-1.18,1.09-2.32,2.3-3.35,3.51c-2.11,2.42-4.07,4.97-5.68,7.75c-0.69,1.21-1.26,2.43-1.69,3.76
			c-0.53,1.7-0.54,3.28,0.28,4.62c0.27,0.49,0.55,0.91,0.89,1.28c0.7,1.04,1.4,2.01,2.04,3.11c0.22,0.43,0.45,0.79,0.75,1.1
			c1.02,1.16,2.37,1.59,3.99,1.42c1.44-0.11,2.9-0.41,4.29-1.01c0.67-0.3,1.34-0.6,2.01-0.9c1.7-0.78,3.33-1.8,4.76-3.01
			c1.3-1.09,2.53-2.17,3.72-3.32c1.32-1.27,2.64-2.48,3.76-3.93c1.46-1.82,2.72-3.82,3.92-5.82
			C116.13,208.99,116.9,206.81,117.24,204.5z"/>
		<path fill="#B09C55" d="M122.36,220.63c0.09,0.18,0.01,0.3-0.01,0.49c-0.37,1.76-0.75,3.52-1.18,5.28
			c-0.34,1.52-0.74,3.1-1.24,4.55c-1.06,2.97-2.38,5.76-4.23,8.31c-0.57,0.79-1.12,1.45-1.73,2.12c-0.2,0.18-0.4,0.42-0.71,0.6
			c-0.08-0.24,0.01-0.43-0.02-0.61c0.28-1.88,0.89-3.7,1.6-5.46c1.8-4.49,3.96-8.79,6.29-13.04c0.39-0.73,0.78-1.46,1.17-2.18
			C122.3,220.69,122.36,220.69,122.36,220.63z M106.28,240.12c-0.09,0.61-0.16,1.46-0.06,2.31c0.17,1.16,0.59,2.13,1.39,2.86
			c1.21,1.04,2.42,2.02,3.49,3.24c0.25,0.24,0.49,0.49,0.69,0.73c0.4,0.37,0.91,0.37,1.46,0.13c0.24-0.12,0.49-0.24,0.73-0.36
			c0.94-0.6,1.79-1.33,2.54-2.24c1.98-2.24,3.54-4.78,5-7.39c1.14-1.94,2-3.94,2.65-6.06c0.42-1.34,0.73-2.67,1-4.07
			c0.41-2,0.88-4.07,1.18-6.07c0.05-0.36,0.11-0.73,0.21-1.03c0.21-1.03,0.36-2.06,0.46-3.1c0-0.36,0.05-0.73,0.11-1.15
			c0.04-0.24,0.17-0.36,0.39-0.36c0.11,0,0.23,0,0.34,0c2.04,0.01,4.02-0.71,5.85-1.97c0.94-0.6,1.94-1.2,2.92-1.75
			c0.49-0.24,1.04-0.54,1.53-0.78c0.99-0.54,1.94-1.2,2.79-1.99c0.39-0.3,0.39-0.36,0.22-0.73c-0.26-0.55-0.58-1.04-0.92-1.46
			c-0.34-0.37-0.34-0.37-0.83-0.13c-1.29,0.66-2.57,1.26-3.84,1.8c-0.72,0.24-1.42,0.42-2.16,0.41c-0.39-0.06-0.84-0.07-1.25-0.01
			c-1.22,0.18-2.37,0.29-3.51-0.02c-0.44-0.12-0.44-0.12-0.2-0.55c0.51-0.79,1.09-1.64,1.61-2.48c2.31-3.76,4.84-7.45,7.52-11.02
			c1.21-1.63,2.48-3.33,3.68-4.96c0.58-0.85,0.62-1.15,0.16-1.88c-0.31-0.61-0.68-1.16-1.05-1.71c-0.56-0.79-1.2-1.47-1.83-2.2
			c-0.3-0.25-0.46-0.31-0.84-0.07c-0.83,0.6-1.6,1.21-2.23,2.06c-0.51,0.79-1.07,1.51-1.64,2.24c-1.96,2.54-3.82,5.15-5.62,7.75
			c-1.93,2.73-3.65,5.57-5.43,8.36c-3.46,5.39-6.72,10.9-9.65,16.6c-1.98,3.82-3.85,7.64-5.33,11.58
			C107.17,236.35,106.58,238.05,106.28,240.12z"/>
		<path fill="#B09C55" d="M140.39,220.73c0.09,0.18,0.01,0.3-0.01,0.49c-0.37,1.76-0.75,3.52-1.18,5.28
			c-0.34,1.52-0.74,3.1-1.24,4.55c-1.06,2.97-2.38,5.76-4.23,8.31c-0.57,0.79-1.12,1.45-1.73,2.12c-0.2,0.18-0.4,0.42-0.71,0.6
			c-0.08-0.24,0.01-0.43-0.02-0.61c0.28-1.88,0.89-3.7,1.6-5.46c1.8-4.49,3.96-8.79,6.29-13.04c0.39-0.73,0.78-1.45,1.17-2.18
			C140.33,220.79,140.38,220.79,140.39,220.73z M124.3,240.21c-0.09,0.61-0.16,1.46-0.06,2.31c0.17,1.16,0.59,2.13,1.39,2.86
			c1.21,1.04,2.42,2.02,3.49,3.24c0.25,0.24,0.49,0.49,0.69,0.73c0.4,0.37,0.91,0.37,1.46,0.13c0.25-0.12,0.49-0.24,0.74-0.36
			c0.94-0.6,1.79-1.33,2.54-2.24c1.98-2.24,3.54-4.78,5-7.39c1.14-1.94,2-3.94,2.65-6.06c0.42-1.34,0.73-2.67,1-4.07
			c0.41-2,0.88-4.07,1.18-6.07c0.05-0.36,0.11-0.73,0.21-1.03c0.21-1.03,0.36-2.06,0.46-3.1c0-0.36,0.05-0.73,0.11-1.15
			c0.04-0.24,0.17-0.36,0.39-0.36c0.11,0,0.23,0,0.34,0c2.04,0.01,4.02-0.71,5.85-1.97c0.94-0.6,1.94-1.2,2.92-1.75
			c0.49-0.24,1.04-0.54,1.53-0.78c0.99-0.54,1.94-1.2,2.79-1.99c0.39-0.3,0.39-0.36,0.22-0.73c-0.26-0.55-0.59-1.04-0.92-1.46
			c-0.34-0.37-0.34-0.37-0.83-0.13c-1.29,0.66-2.57,1.26-3.84,1.8c-0.72,0.24-1.42,0.42-2.16,0.41c-0.39-0.06-0.84-0.07-1.25-0.01
			c-1.22,0.18-2.37,0.29-3.51-0.02c-0.44-0.12-0.44-0.12-0.2-0.55c0.51-0.79,1.09-1.64,1.61-2.48c2.31-3.76,4.84-7.45,7.52-11.02
			c1.21-1.64,2.48-3.33,3.68-4.97c0.58-0.85,0.62-1.15,0.16-1.88c-0.31-0.61-0.68-1.16-1.05-1.71c-0.56-0.79-1.2-1.47-1.83-2.2
			c-0.3-0.24-0.47-0.31-0.84-0.07c-0.83,0.6-1.6,1.21-2.23,2.05c-0.51,0.79-1.07,1.51-1.64,2.24c-1.96,2.54-3.82,5.15-5.62,7.75
			c-1.93,2.73-3.65,5.57-5.43,8.36c-3.46,5.39-6.72,10.9-9.65,16.6c-1.98,3.82-3.85,7.64-5.33,11.58
			C125.2,236.45,124.61,238.15,124.3,240.21z"/>
		<path fill="#B09C55" d="M165.19,209.86c2.04-2.3,4.23-4.42,6.61-6.35c0.7-0.54,1.51-1.02,2.26-1.45c0.99-0.54,1.97-1.02,2.95-1.5
			c0.24-0.12,0.48-0.18,0.73-0.3c0.72-0.24,0.81-0.12,0.64,0.67c-0.09,0.24-0.24,0.48-0.38,0.67c-0.86,1.21-1.97,2.18-3.07,3.14
			c-1.43,1.21-3.04,2.11-4.64,3.01c-0.38,0.24-0.8,0.42-1.16,0.54c-1.01,0.3-1.88,0.84-2.71,1.44c-0.44,0.3-0.98,0.48-1.46,0.66
			C164.92,210.17,165.11,210.05,165.19,209.86z M192.46,208.06c-0.16-0.43-0.39-0.79-0.68-1.16c-0.14-0.18-0.36-0.24-0.61-0.06
			c-0.26,0.24-0.57,0.42-0.83,0.6c-3.59,2.84-7.36,5.31-11.15,7.54c-3.04,1.81-6.2,3.25-9.4,4.51c-1.81,0.72-3.63,1.14-5.74,1.19
			c-0.45,0-1.12-0.13-1.78-0.25c-0.55-0.12-1.11-0.19-1.66-0.31c-0.22-0.06-0.44-0.12-0.44-0.49c0.15-1.76,0.73-3.4,1.58-4.98
			c0.14-0.18,0.27-0.3,0.48-0.18c0.27,0.12,0.54,0.19,0.74,0.37c0.92,0.67,2.02,0.92,3.05,1.23c0.65,0.19,1.37-0.05,2.05-0.05
			c1.47,0.01,2.91-0.47,4.33-1.25c2.3-1.39,4.42-3.02,6.35-5.01c1.28-1.39,2.25-2.97,2.7-4.85c0.23-1.15,0.39-2.25,0.78-3.4
			c0.48-1.33,0.31-2.49-0.21-3.59c-0.65-1.34-1.44-2.56-2.29-3.66c-0.52-0.73-1.25-1.16-2.15-1.23c-0.84-0.07-1.64-0.01-2.5,0.41
			c-0.55,0.24-1.04,0.48-1.53,0.78c-4.63,2.53-8.76,5.91-12.52,9.9c-1.63,1.81-3.15,3.69-4.48,5.81c-0.96,1.51-1.59,3.09-2.01,4.79
			c-0.49,1.76-0.16,3.4,0.48,4.8c0.82,1.77,1.64,3.47,2.35,5.24c0.55,1.28,1.49,2.19,2.7,2.87c1.21,0.68,2.53,0.56,3.93,0.33
			c2.16-0.41,4.23-1.37,6.32-2.46c4.32-2.35,8.32-5.3,12.15-8.56c2.4-2.05,4.8-4.11,7.29-5.98c0.89-0.66,1.73-1.33,2.52-2.11
			C192.67,208.55,192.68,208.49,192.46,208.06z"/>
		<path fill="#B09C55" d="M196.76,210.03c2.04-2.3,4.23-4.42,6.61-6.35c0.7-0.54,1.51-1.03,2.26-1.45c0.99-0.54,1.97-1.02,2.95-1.5
			c0.24-0.12,0.48-0.18,0.73-0.3c0.72-0.24,0.81-0.12,0.64,0.67c-0.09,0.24-0.24,0.49-0.38,0.67c-0.86,1.21-1.97,2.18-3.07,3.14
			c-1.43,1.21-3.04,2.11-4.64,3.01c-0.38,0.24-0.8,0.42-1.16,0.54c-1.01,0.3-1.88,0.84-2.71,1.44c-0.44,0.3-0.98,0.48-1.46,0.66
			C196.49,210.34,196.68,210.22,196.76,210.03z M224.03,208.23c-0.16-0.43-0.39-0.79-0.68-1.16c-0.14-0.18-0.36-0.25-0.61-0.06
			c-0.26,0.24-0.57,0.42-0.83,0.6c-3.6,2.84-7.36,5.31-11.15,7.54c-3.04,1.81-6.2,3.25-9.4,4.51c-1.81,0.72-3.63,1.14-5.74,1.18
			c-0.45,0-1.12-0.13-1.78-0.25c-0.55-0.12-1.11-0.19-1.66-0.31c-0.22-0.06-0.44-0.12-0.44-0.49c0.15-1.76,0.73-3.4,1.58-4.98
			c0.14-0.18,0.27-0.3,0.48-0.18c0.27,0.12,0.54,0.19,0.74,0.37c0.92,0.67,2.02,0.92,3.05,1.23c0.65,0.19,1.37-0.05,2.05-0.05
			c1.47,0.01,2.91-0.47,4.33-1.25c2.3-1.39,4.42-3.02,6.35-5.01c1.28-1.39,2.25-2.97,2.7-4.85c0.23-1.15,0.39-2.25,0.78-3.4
			c0.48-1.33,0.31-2.49-0.21-3.59c-0.65-1.34-1.44-2.56-2.29-3.66c-0.52-0.73-1.25-1.16-2.15-1.23c-0.84-0.07-1.64-0.01-2.5,0.41
			c-0.55,0.24-1.04,0.48-1.53,0.78c-4.63,2.53-8.76,5.91-12.52,9.9c-1.63,1.82-3.15,3.69-4.48,5.81c-0.96,1.51-1.59,3.09-2.01,4.79
			c-0.49,1.76-0.16,3.4,0.48,4.8c0.82,1.77,1.64,3.47,2.35,5.24c0.55,1.28,1.49,2.19,2.7,2.87c1.21,0.68,2.53,0.56,3.93,0.33
			c2.16-0.41,4.23-1.37,6.32-2.46c4.32-2.35,8.32-5.3,12.15-8.56c2.4-2.05,4.8-4.11,7.29-5.98c0.89-0.66,1.73-1.33,2.52-2.11
			C224.24,208.72,224.25,208.66,224.03,208.23z"/>
		<path fill="#B09C55" d="M23.62,258c-2.32,0.1-4.55-0.38-6.76-1.04c-1.6-0.57-3-1.33-4.27-2.38c-0.55-0.48-0.83-1.05-0.88-1.9
			c-0.28-3.61-0.03-7.22,0.85-10.92c0.87-3.61,2.17-7.12,3.8-10.54c1.52-3.23,3.46-6.27,5.4-9.31c3.72-5.6,7.91-10.73,12.72-15.29
			c1.95-1.9,4.07-3.7,6.19-5.51c4-3.23,8.07-6.27,12.43-8.93c1.86-1.24,3.76-2.19,5.68-3.23c3.93-2.09,7.84-4.08,12.02-5.41
			c4.98-1.43,9.86-2.09,14.59-1.14c1.45,0.38,2.89,0.85,3.99,1.8c0.48,0.38,0.59,0.85,0.32,1.52c-1.07,2.56-2.3,4.94-3.86,7.22
			c-2.22,3.14-4.82,5.89-7.51,8.55c-4.42,4.28-8.96,8.17-13.8,11.68c-4.05,2.94-7.81,6.36-12.14,8.74c-0.47,0.19-0.52,0.57-0.4,0.95
			c0.17,0.66,0.43,1.33,0.5,2.09c0.1,1.14,0.31,1.52,1.82,1.52c0.35,0,0.8,0,1.16-0.1c1.91-0.38,3.79-1.14,5.61-2.09
			c5.44-2.75,10.78-6.08,15.85-9.97c4.75-3.51,9.2-7.41,13.12-11.97c2.57-3.13,4.72-6.46,6.4-10.16c0.9-2,1.28-3.99,1.04-6.08
			c-0.27-3.7-1.11-7.12-2.03-10.54c-0.86-2.66-2.55-4.46-5.17-5.31c-1.96-0.57-3.95-0.85-6.08-0.85c-3.09-0.1-6.08,0.38-9.11,1.14
			c-9.74,2.47-19.04,6.83-27.86,12.24c-5.23,3.14-10.02,6.94-14.74,10.83c-3.84,3.33-7.53,6.84-10.93,10.83
			c-4.35,5.03-8.05,10.54-11.35,16.34c-3.63,6.27-5.91,12.92-6.45,19.85c-0.28,3.23-0.02,6.36,0.71,9.31
			c0.66,2.85,1.59,5.6,2.05,8.55c0.3,1.61,0.89,3.04,1.59,4.36c1.24,2.47,2.89,4.56,5.38,5.69c3.88,1.99,8.13,2.56,12.66,1.9
			c3.43-0.47,6.84-1.42,10.27-2.47c1.67-0.57,3.26-1.14,4.89-1.99c5.17-2.75,10.22-5.88,15.2-9.11c7.11-4.56,13.85-9.59,20.75-14.53
			c3.16-2.28,5.69-5.13,8.45-7.79c0.8-0.67,0.74-0.85,0.43-1.8c-0.17-0.66-0.53-1.24-0.88-1.9c-0.27-0.57-0.45-0.57-1.12-0.19
			c-0.57,0.29-1.08,0.76-1.59,1.24c-1.5,1.23-2.93,2.56-4.5,3.61c-4,2.56-7.99,5.13-12.11,7.31c-3.15,1.61-6.26,3.51-9.5,5.13
			c-4,2-8.08,3.89-12.24,5.13c-1.76,0.57-3.41,0.95-5.19,1.61c-2.04,0.66-4.17,1.33-6.29,1.9C29.74,257.33,26.72,258,23.62,258z"/>
		<path fill="#B09C55" d="M345.33,239.19c-0.09,0.18-0.09,0.24-0.16,0.3c-1.26,1.96-2.59,3.93-4.15,5.77
			c-1.78,2.14-3.88,3.87-6.39,5.06c-0.8,0.42-1.58,0.71-2.47,0.89c-0.25,0.06-0.51,0.12-0.76,0.12c-0.49,0-0.55-0.06-0.6-0.54
			c-0.07-0.77,0.11-1.61,0.4-2.38c0.43-0.89,0.98-1.67,1.75-2.32c1.41-1.25,2.96-2.2,4.57-3.09
			C339.99,241.63,343.36,240.02,345.33,239.19z M339.57,228.18c-0.1-0.18,0.05-0.36,0.14-0.54c0.87-2.2,2.08-4.22,3.47-6.19
			c1.7-2.38,3.62-4.64,5.77-6.72c1.36-1.31,2.99-2.38,4.7-3.15c0.86-0.42,1.75-0.6,2.67-0.6c0.55,0.06,0.83,0.24,0.94,0.77
			c0.16,0.6,0.25,1.25,0.28,1.9c0.07,0.36-0.08,0.54-0.36,0.77c-1.26,1.07-2.59,2.2-3.86,3.27c-1.25,1.01-2.44,2.02-3.7,3.03
			c-2.04,1.79-4.25,3.45-6.45,5.06c-1.03,0.71-2,1.49-3.02,2.14C339.96,228.06,339.81,228.24,339.57,228.18z M357.71,218.48
			c-0.03,0.18-0.11,0.3-0.18,0.42c-1.04,1.67-2.03,3.39-3,5.06c-1.65,2.92-3.36,5.83-5.07,8.75c-0.31,0.48-0.67,0.83-1.32,1.07
			c-1.03,0.36-2.03,0.83-3.02,1.31c-2.44,1.13-4.98,2.08-7.44,3.33c-2.05,1.01-4.16,1.96-5.97,3.39c-1.65,1.25-3.14,2.62-4.3,4.28
			c-0.93,1.37-1.51,2.86-1.61,4.4c-0.02,1.01,0.16,1.9,0.87,2.56c0.27,0.24,0.49,0.48,0.76,0.71c0.93,0.83,1.85,1.67,2.65,2.56
			c0.37,0.42,0.81,0.77,1.26,1.07c0.95,0.65,2.06,1.13,3.39,0.83c1.01-0.18,1.92-0.48,2.84-0.89c2.32-1.13,4.27-2.74,6.06-4.52
			c3.6-3.63,6.52-7.68,9.27-11.84c1.66-2.56,3.2-5.18,4.81-7.79c0.16-0.24,0.3-0.42,0.57-0.54c2.15-1.25,4.19-2.62,6.28-3.87
			c1.77-1.13,3.46-2.2,5.11-3.39c2.36-1.84,4.77-3.63,7.24-5.41c0.89-0.65,1.8-1.43,2.77-2.14c0.49-0.36,0.36-0.36,0.05-1.19
			c-0.11-0.12-0.15-0.24-0.26-0.36c-0.58-0.71-0.44-0.77-1.39-0.18c-0.26,0.12-0.53,0.3-0.74,0.48c-1.98,1.37-4.03,2.8-5.96,4.22
			c-2.98,2.32-6.26,4.17-9.43,6.07c-0.2,0.12-0.4,0.24-0.72,0.3c0.71-1.13,1.31-2.26,1.96-3.39c2.39-3.81,4.6-7.68,6.64-11.6
			c0.5-0.89,0.69-1.84,0.82-2.73c0.03-0.59-0.09-1.07-0.39-1.55c-0.67-0.95-1.46-1.84-2.33-2.67c-0.5-0.42-0.62-0.42-1.23,0
			c-0.83,0.59-1.6,1.25-2.31,1.96c-0.5,0.48-0.88,1.01-1.15,1.6c-0.6,1.19-1.26,2.38-1.86,3.51c-0.09,0.18-0.11,0.36-0.37,0.42
			c-0.15-0.24-0.18-0.48-0.21-0.71c-0.23-1.01-0.52-1.96-1.09-2.74c-0.76-1.19-1.66-2.2-2.63-3.15c-1.09-1.01-2.45-1.43-4.14-1.25
			c-1.69,0.18-3.32,0.83-4.81,1.78c-1.95,1.19-3.63,2.61-5.27,4.16c-3.14,3.03-5.77,6.37-8.02,10c-1.12,1.79-1.99,3.63-2.7,5.59
			c-0.46,1.49-0.54,2.92,0.05,4.4c1.21,1.43,2.43,2.8,3.51,4.34c0.2,0.3,0.49,0.42,0.86,0.42c0.38-0.06,0.69-0.12,1.02-0.24
			c0.59-0.24,1.13-0.59,1.61-0.89c2.52-1.67,4.7-3.57,6.89-5.59c1.71-1.61,3.47-3.15,5.18-4.76c1.62-1.43,3.24-2.86,4.86-4.28
			C356.6,219.37,357.15,218.96,357.71,218.48z"/>
		<path fill="#B09C55" d="M383.96,239.19c-0.09,0.18-0.09,0.24-0.16,0.3c-1.27,1.96-2.6,3.93-4.15,5.77
			c-1.78,2.14-3.88,3.87-6.39,5.06c-0.8,0.42-1.58,0.71-2.47,0.89c-0.26,0.06-0.51,0.12-0.76,0.12c-0.49,0-0.55-0.06-0.6-0.54
			c-0.07-0.77,0.11-1.61,0.4-2.38c0.44-0.89,0.98-1.67,1.75-2.32c1.41-1.25,2.96-2.2,4.57-3.09
			C378.62,241.63,381.99,240.02,383.96,239.19z M378.2,228.18c-0.1-0.18,0.05-0.36,0.14-0.54c0.87-2.2,2.08-4.22,3.47-6.19
			c1.7-2.38,3.62-4.64,5.77-6.72c1.36-1.31,2.99-2.38,4.7-3.15c0.86-0.42,1.75-0.6,2.67-0.6c0.55,0.06,0.83,0.24,0.94,0.77
			c0.16,0.6,0.25,1.25,0.28,1.9c0.07,0.36-0.08,0.54-0.36,0.77c-1.26,1.07-2.6,2.2-3.86,3.27c-1.25,1.01-2.44,2.02-3.7,3.03
			c-2.04,1.79-4.25,3.45-6.45,5.06c-1.03,0.71-2,1.49-3.02,2.14C378.58,228.06,378.44,228.24,378.2,228.18z M396.33,218.48
			c-0.02,0.18-0.1,0.3-0.18,0.42c-1.04,1.67-2.03,3.39-3,5.06c-1.65,2.92-3.36,5.83-5.07,8.75c-0.31,0.48-0.67,0.83-1.32,1.07
			c-1.03,0.36-2.03,0.83-3.02,1.31c-2.44,1.13-4.98,2.08-7.43,3.33c-2.05,1.01-4.16,1.96-5.97,3.39c-1.65,1.25-3.14,2.62-4.3,4.28
			c-0.93,1.37-1.52,2.86-1.61,4.4c-0.02,1.01,0.16,1.9,0.86,2.56c0.28,0.24,0.49,0.48,0.76,0.71c0.93,0.83,1.86,1.67,2.65,2.56
			c0.37,0.42,0.82,0.77,1.27,1.07c0.96,0.65,2.06,1.13,3.39,0.83c1.01-0.18,1.92-0.48,2.84-0.89c2.32-1.13,4.27-2.74,6.07-4.52
			c3.6-3.63,6.52-7.68,9.27-11.84c1.66-2.56,3.2-5.18,4.81-7.79c0.16-0.24,0.3-0.42,0.57-0.54c2.15-1.25,4.19-2.62,6.28-3.87
			c1.76-1.13,3.46-2.2,5.11-3.39c2.36-1.84,4.77-3.63,7.24-5.41c0.9-0.65,1.8-1.43,2.77-2.14c0.49-0.36,0.36-0.36,0.05-1.19
			c-0.1-0.12-0.15-0.24-0.25-0.36c-0.58-0.71-0.44-0.77-1.39-0.18c-0.26,0.12-0.53,0.3-0.75,0.48c-1.98,1.37-4.03,2.8-5.96,4.22
			c-2.98,2.32-6.26,4.17-9.43,6.07c-0.2,0.12-0.4,0.24-0.72,0.3c0.71-1.13,1.31-2.26,1.96-3.39c2.39-3.81,4.6-7.68,6.64-11.6
			c0.5-0.89,0.69-1.84,0.82-2.73c0.03-0.59-0.09-1.07-0.39-1.55c-0.67-0.95-1.46-1.84-2.33-2.67c-0.5-0.42-0.62-0.42-1.23,0
			c-0.83,0.59-1.6,1.25-2.31,1.96c-0.5,0.48-0.88,1.01-1.15,1.6c-0.6,1.19-1.27,2.38-1.86,3.51c-0.09,0.18-0.11,0.36-0.37,0.42
			c-0.15-0.24-0.18-0.48-0.21-0.71c-0.22-1.01-0.52-1.96-1.09-2.74c-0.75-1.19-1.65-2.2-2.63-3.15c-1.09-1.01-2.45-1.43-4.14-1.25
			c-1.69,0.18-3.32,0.83-4.81,1.78c-1.95,1.19-3.64,2.61-5.27,4.16c-3.14,3.03-5.77,6.37-8.02,10c-1.12,1.79-1.99,3.63-2.7,5.59
			c-0.46,1.49-0.54,2.92,0.05,4.4c1.21,1.43,2.43,2.8,3.5,4.34c0.21,0.3,0.5,0.42,0.87,0.42c0.38-0.06,0.69-0.12,1.02-0.24
			c0.59-0.24,1.13-0.59,1.61-0.89c2.52-1.67,4.7-3.57,6.9-5.59c1.71-1.61,3.47-3.15,5.17-4.76c1.62-1.43,3.24-2.86,4.86-4.28
			C395.23,219.37,395.78,218.96,396.33,218.48z"/>
		<path fill="#B09C55" d="M419.26,228.01c-1.67,0.06-3.19-0.54-4.62-1.31c-0.23-0.12-0.32-0.36-0.41-0.59
			c-0.14-0.36-0.06-0.48,0.32-0.54c0.94-0.12,1.9-0.36,2.78-0.54c1.47-0.36,2.88-0.71,4.29-1.13c0.39-0.12,0.69-0.12,0.96,0.18
			c0.33,0.3,0.65,0.59,1.05,0.83c0.28,0.18,0.25,0.42,0.14,0.71c-0.56,1.31-1.64,1.96-2.97,2.26
			C420.3,228.01,419.8,228.07,419.26,228.01z M418.34,220.57c-0.15,0.18-0.39,0.18-0.58,0.18c-0.51,0.12-1.01,0.18-1.58,0.3
			c-1.33,0.24-2.71,0.42-4.06,0.83c-0.52,0.18-0.93,0.48-1.34,0.77c-0.21,0.18-0.3,0.36-0.2,0.54c0.15,0.24,0.12,0.42,0.08,0.71
			c-0.1,0.3-0.03,0.65,0.05,0.95c0.08,0.3,0.21,0.65,0.36,0.95c0.8,1.31,1.54,2.62,2.34,3.93c1.33,2.32,3.48,3.68,6.07,4.52
			c2.19,0.65,4.4,0.24,6.47-1.31c0.82-0.59,1.66-1.25,2.43-1.96c0.62-0.48,1.13-1.01,1.47-1.66c0.81-1.37,0.94-2.74,0.26-3.99
			c-0.58-1.13-1.23-2.14-1.89-3.15c-0.26-0.36-0.25-0.42,0.21-0.59c1.11-0.48,2.29-0.95,3.4-1.43c1.25-0.54,2.42-0.95,3.6-1.49
			c2.76-1.19,5.1-2.92,7.5-4.64c0.13-0.06,0.27-0.18,0.41-0.3c0.21-0.18,0.31-0.42,0.16-0.65c-0.18-0.48-0.44-0.83-0.69-1.25
			c-0.2-0.3-0.32-0.36-0.72-0.12c-0.13,0.06-0.2,0.12-0.27,0.18c-1.15,0.71-2.35,1.37-3.55,2.02c-2.75,1.55-5.68,2.68-8.59,3.69
			c-1.17,0.42-2.27,0.77-3.43,1.13c-0.32,0.12-0.63,0.12-0.83-0.18c-0.27-0.3-0.6-0.54-0.93-0.83c-0.99-0.83-2.04-1.67-3.1-2.44
			c-0.21-0.24-0.25-0.42-0.15-0.71c0.18-0.36,0.35-0.71,0.64-1.01c0.77-1.07,1.82-1.96,2.86-2.8c2.23-1.84,4.84-3.27,7.23-4.94
			c0.69-0.48,1.41-0.77,2.19-1.07c0.03,0.24-0.11,0.36-0.19,0.48c-2.04,3.09-4.41,5.89-7.23,8.39c-0.35,0.3-0.71,0.65-1.07,1.01
			c-0.36,0.36-0.37,0.48-0.12,0.83c0.27,0.3,0.47,0.59,0.67,0.89c0.37,0.42,0.61,0.48,1.21,0.18c0.53-0.24,1.01-0.59,1.43-1.01
			c3.14-2.62,5.91-5.65,8.46-8.81c0.67-0.77,1.22-1.61,1.65-2.5c0.33-0.59,0.34-1.13,0.12-1.73c-0.51-1.13-1.16-2.2-1.94-3.21
			c-0.37-0.48-0.87-0.77-1.54-0.89c-0.67-0.06-1.35-0.06-2.04,0.06c-2.39,0.36-4.62,1.37-6.76,2.56c-2.81,1.55-5.47,3.39-8.05,5.47
			c-1.11,0.83-2.1,1.78-2.94,2.92c-0.7,1.01-1.09,2.02-0.95,3.15c0.05,0.54,0.23,1.01,0.41,1.49c0.76,1.55,1.53,3.09,2.04,4.7
			c0.16,0.59,0.46,1.07,0.89,1.55C418.26,220.33,418.37,220.39,418.34,220.57z"/>
		<path fill="#B09C55" d="M419.35,211.56c-0.98,3.39-0.98,4.4-0.46,6.45c2.83,11.89,29.21-9.23,39.38-3.18
			c0.51,0.3,0.75,0.51,0.75,0.51s-0.08-1.05-0.13-1.31c-1.04-7.05-10.32-4.66-14.37-3.7c-6.52,1.42-21.81,9.7-24.38,0.53
			c-0.08-0.27-0.18-0.29-0.39-0.08C419.61,210.93,419.43,211.23,419.35,211.56z"/>
		<path fill="#B09C55" d="M238.94,214.54c0.47,3.57,0.94,4.51,2.44,6.14c8.51,9.59,29.05-25.81,41.63-21.48
			c0.21,0.13,0.39,0.44,0.47-0.03c0.09-0.37,0.02-0.79-0.16-1.01c-4.35-5.99-13.42,0.58-17.4,3.38
			c-6.49,4.38-19.44,19.2-26.43,11.98c-0.21-0.21-0.33-0.18-0.46,0.11C238.92,213.83,238.87,214.2,238.94,214.54z"/>
		<path fill="#B09C55" d="M248.83,202.12c0.06-0.44,0.23-0.84,0.46-1.2c0.1-0.18,0.22-0.29,0.38-0.4c0.52-0.33,1.05-0.51,1.61-0.62
			c0.46-0.15,0.93-0.18,1.41-0.22c0.11,0,0.29-0.04,0.35,0.11c0.02,0.11-0.1,0.18-0.19,0.29c-0.26,0.29-0.56,0.58-0.85,0.84
			c-0.92,0.84-1.83,1.64-2.78,2.44c-0.29,0.29-0.33,0.25-0.38-0.11C248.76,202.89,248.81,202.49,248.83,202.12z M243.63,215.94
			h-0.65c-0.32-0.04-0.35-0.11-0.23-0.44c0.13-0.44,0.38-0.87,0.69-1.27c0.72-0.98,1.57-1.85,2.52-2.65
			c0.86-0.69,1.72-1.38,2.59-2.11c0.41-0.33,0.41-0.33,0.65,0.04c0.61,0.84,1.38,1.53,2.11,2.22c0.36,0.29,0.75,0.58,1.1,0.91
			c0.2,0.15,0.19,0.18-0.08,0.33c-1.77,0.95-3.55,1.74-5.42,2.4C245.8,215.72,244.64,215.98,243.63,215.94z M251.94,195.8
			c-0.18-0.04-0.44,0.04-0.7,0.07c-0.96,0.11-1.86,0.33-2.7,0.87c-1.07,0.62-1.95,1.45-2.74,2.44c-0.49,0.62-0.77,1.34-0.8,2.07
			c-0.02,0.62,0.09,1.16,0.26,1.71c0.27,0.87,0.71,1.64,1.14,2.44c0.14,0.25,0.14,0.25-0.1,0.47c-0.9,0.73-1.77,1.45-2.62,2.15
			c-1.28,1.05-2.45,2.18-3.53,3.42c-0.56,0.65-1.07,1.38-1.36,2.18c-0.32,0.98-0.31,1.89,0.2,2.69c0.6,0.91,1.19,1.82,1.63,2.8
			c0.19,0.44,0.51,0.76,0.91,0.98c0.71,0.36,1.48,0.55,2.36,0.51c0.62,0,1.29-0.11,1.92-0.22c1.93-0.33,3.78-1.09,5.59-2.04
			c1.53-0.8,2.97-1.74,4.35-2.8c0.16-0.11,0.28-0.18,0.45-0.07c1.15,0.87,2.35,1.6,3.45,2.51c0.17,0.11,0.33,0.22,0.47,0.29
			c0.31,0.15,0.42,0.15,0.67-0.11c0.04-0.04,0.08-0.07,0.09-0.11c0.51-0.51,0.52-0.58,0.19-1.09c-0.42-0.62-0.89-1.16-1.39-1.67
			c-0.47-0.51-0.99-0.95-1.47-1.42c-0.2-0.15-0.19-0.18,0.01-0.33c0.25-0.25,0.47-0.47,0.72-0.69c0.63-0.58,1.22-1.2,1.75-1.85
			c0.32-0.47,0.64-0.95,0.82-1.45c0.23-0.62,0.5-1.24,0.73-1.82c0.07-0.25,0.18-0.51,0.25-0.76c0.04-0.25,0.03-0.47-0.05-0.65
			c-0.24-0.33-0.49-0.62-0.78-0.91c-0.06-0.07-0.13-0.11-0.25-0.04c-0.2,0.11-0.44,0.25-0.51,0.51c-0.16,0.62-0.5,1.2-0.79,1.74
			c-0.16,0.33-0.41,0.58-0.69,0.8c-1.33,0.95-2.66,1.89-4.06,2.76c-0.2,0.11-0.31,0.15-0.47,0c-1.18-0.91-2.35-1.82-3.44-2.84
			c-0.19-0.18-0.35-0.36-0.51-0.51c-0.09-0.15-0.11-0.25,0.05-0.36c0.05-0.07,0.09-0.11,0.17-0.18c0.92-0.84,1.87-1.64,2.79-2.51
			c0.7-0.62,1.38-1.27,1.98-1.96c0.39-0.47,0.75-0.95,1.08-1.49c0.39-0.69,0.41-1.34,0.06-1.93c-0.09-0.15-0.14-0.25-0.24-0.36
			c-0.53-0.87-1.18-1.64-1.92-2.33c-0.26-0.22-0.52-0.4-0.87-0.55C253.41,195.94,252.74,195.8,251.94,195.8z"/>
		<path fill="#B09C55" d="M288.44,223.18c-0.09,0.16-0.3,0.17-0.45,0.26c-0.89,0.43-1.79,0.86-2.68,1.3
			c-3.22,1.64-6.38,3.43-9.32,5.79c-1.48,1.26-2.82,2.51-4.24,3.84c-2.23,2.25-4.27,4.73-5.66,7.67c-0.93,1.96-1.7,3.84-1.86,5.93
			c-0.11,1.61,0.06,3.21,0.46,4.65c0.46,2.15,1,4.31,1.37,6.63c0.63,3.83,2.5,6.66,5.22,8.74c3.26,2.38,6.94,3.46,11.12,3.31
			c1.27,0.04,2.55-0.09,3.76-0.21c1.87-0.3,3.73-0.61,5.53-1.55c0.74-0.35,1.49-0.69,2.17-1.12c2.68-1.3,5.37-2.59,7.95-4.21
			c3.87-2.46,7.68-5,11.44-7.7c2.62-1.94,5.17-3.95,7.73-6.05c2.62-2.02,5.2-4.2,7.58-6.61c1.28-1.33,2.55-2.58,3.88-3.83
			c0.71-0.67,1.36-1.41,2.08-2.16c0.32-0.33,0.43-0.66,0.26-1.05c-0.14-0.64-0.42-1.27-0.71-1.83c-0.23-0.47-0.29-0.55-0.81-0.29
			c-0.6,0.34-1.15,0.84-1.63,1.34c-1.8,1.59-3.53,3.18-5.44,4.53c-2.69,1.94-5.42,3.72-8.11,5.66c-2.22,1.6-4.57,3.05-6.74,4.73
			c-2.78,2.19-5.73,3.89-8.77,5.28c-3.05,1.39-6.12,2.38-9.21,2.89c-1.43,0.21-2.8,0.42-4.19,0.87c-0.43,0.1-0.79,0.11-1.22,0.2
			c-1.73,0.3-3.42,0.36-5.19,0.34c-1.49,0.05-2.95-0.14-4.32-0.5c-2.94-0.78-5.54-2.14-7.61-4.4c-0.25-0.31-0.42-0.63-0.38-1.03
			c-0.02-1.04,0.23-2.02,0.49-3.07c0.63-2.43,1.78-4.56,3.27-6.54c1.48-1.9,3.15-3.56,4.89-5.23c3.77-3.42,7.86-5.98,12.39-7.34
			c4.52-1.36,9.05-2.72,13.52-3.6c1.66-0.3,3.32-0.68,4.94-0.65c1.62,0.03,3.23-0.51,4.74-1.37c0.67-0.34,0.69-0.51,0.63-1.23
			c-0.22-1.2-0.52-2.31-0.88-3.43c-0.16-0.48-0.41-0.71-0.84-0.69c-0.57,0.02-0.96-0.21-1.35-0.52c-0.19-0.15-0.46-0.31-0.72-0.46
			c-1.32-0.76-2.86-0.95-4.4-0.97c-1.47-0.11-2.9,0.1-4.26-0.34c-1.29-0.44-2.61-0.63-3.72-1.4c-0.65-0.46-1.24-0.84-1.91-1.22
			c-1.52-0.91-2.88-1.99-4.48-2.82c-0.73-0.38-1.39-0.84-2.04-1.3c-0.83-0.78-0.9-0.77-0.34-2c0.96-2.28,2.44-4.1,4.1-5.77
			c2.84-2.67,5.91-4.86,9.14-6.66c2.79-1.62,5.75-2.85,8.75-3.84c3.74-1.25,7.52-2.27,11.34-2.4c2.69-0.09,5.37-0.1,7.92,0.45
			c1.39,0.19,2.83,0.55,4.01,1.31c0.52,0.38,0.58,0.46,0.22,1.2c-0.45,0.9-1.06,1.89-1.64,2.71c-1.23,1.57-2.59,2.98-4,4.24
			c-3.53,3.17-7.31,5.47-11.48,6.74c-1.9,0.63-3.84,0.94-5.8,1.4c-0.94,0.19-1.96,0.47-2.93,0.34c-0.55-0.14-0.99,0.03-1.53,0.45
			c-0.54,0.42-0.63,0.58-0.49,1.22c0.2,0.72,0.47,1.43,0.68,2.15c-0.03,0.24,0.1,0.4,0.31,0.39c0.95,0.29,1.99,0.49,3.07,0.3
			c1.51-0.21,3.1-0.59,4.62-0.96c6.39-1.67,12.34-5,17.99-9.46c1.94-1.59,3.71-3.5,5.16-5.72c1.11-1.73,1.52-3.51,1.17-5.43
			c-0.35-1.92-0.91-3.83-1.55-5.65c-0.41-1.35-1.06-2.45-2.11-3.22c-2.32-1.93-5.11-2.88-8.11-3.18c-1.67-0.18-3.44-0.12-5.16,0.1
			c-2.5,0.25-4.89,0.81-7.29,1.45c-4.66,1.28-9.17,3.12-13.64,5.28c-4.39,2.08-8.57,4.71-12.48,8.14c-1.71,1.43-3.3,3.01-4.57,4.98
			c-1.3,2.13-2.11,4.33-2.1,6.74c0.07,0.64,0.07,1.28,0.21,1.92c0.28,1.92,0.63,3.84,0.69,5.76c0.06,3.21,1.27,5.66,3.32,7.44
			C288.33,222.94,288.46,223.02,288.44,223.18z"/>
		<path fill="#B09C55" d="M189.64,219.95c0.22,3.71,0.64,4.7,2.11,6.48c8.32,10.48,31.42-20.81,46.18-19
			c0.74,0.09,1.11,0.2,1.11,0.2s-0.52-0.99-0.69-1.23c-4.17-6.47-14.38-0.39-18.85,2.19c-7.28,4.02-22.29,18.29-29.19,10.36
			c-0.21-0.23-0.34-0.21-0.5,0.08C189.68,219.22,189.6,219.6,189.64,219.95z"/>
		<g>
			<path fill="#B09C55" d="M443.55,201.89v-4.74h-1.8v-0.83h4.55v0.83h-1.82v4.74H443.55z M446.91,201.89v-5.56h1.37l1.41,4.44
				l1.36-4.44h1.34v5.56h-0.85v-4.67l-1.43,4.67h-0.84l-1.5-4.74v4.74H446.91z"/>
		</g>
	</g>
	<g>
		<path fill="#B09C55" d="M232.32,57.6c0,2.89-2.13,4.86-5.4,4.86s-5.4-1.97-5.4-4.86c0-2.89,2.13-4.86,5.4-4.86
			S232.32,54.71,232.32,57.6z M223.34,57.6c0,2.31,1.35,3.64,3.58,3.64s3.58-1.33,3.58-3.64c0-2.31-1.35-3.64-3.58-3.64
			S223.34,55.29,223.34,57.6z"/>
		<path fill="#B09C55" d="M237.02,53.11l3.15,6.1h0.13l3.09-6.1h4.09l0.07,0.9l-1.44,0.31v6.57l1.44,0.31l-0.07,0.9h-4.61l-0.07-0.9
			l1.55-0.31v-6.39h-0.19l-3.74,7.45l-0.82,0.13l-3.92-7.61h-0.21l0.16,3.3v3.14l1.31,0.29l-0.07,0.9h-3.96l-0.07-0.9l1.37-0.29
			v-6.6l-1.37-0.29l0.07-0.9H237.02z"/>
		<path fill="#B09C55" d="M252.07,53.11l5.32,6.51h0.13V54.3l-1.59-0.31l0.07-0.88h4.09l0.07,0.88l-1.15,0.31v7.54l-1.58,0.46
			l-6.35-7.57H251l0.19,3.15v3.02l1.53,0.29l-0.07,0.9h-4.28l-0.07-0.9l1.37-0.29v-6.6l-1.37-0.31l0.07-0.88H252.07z"/>
		<path fill="#B09C55" d="M265.63,53.11l0.07,0.9l-1.46,0.31v6.55l1.46,0.32l-0.07,0.9h-4.56l-0.07-0.9l1.44-0.32v-6.55l-1.44-0.31
			l0.07-0.9H265.63z"/>
	</g>
	<g>
		<path fill="#B09C55" d="M212.86,97.22l2.58-0.09l0.1,0.06l-0.19,3l-1.16-0.06l-0.13-1.66h-4.83v2.3h2.71l0.46-1.07l0.91,0.07v3.55
			l-0.96,0.07l-0.41-1.38h-2.71v2.95h4.86l0.59-2.08l1.18,0.1l-0.29,3.22h-9.5l-0.07-0.9l1.44-0.31v-6.57l-1.44-0.31l0.07-0.9
			H212.86z"/>
		<path fill="#B09C55" d="M224.94,100.44l-0.41-1.5c-0.77-0.52-1.74-0.84-3.05-0.84c-1.71,0-2.52,0.41-2.52,1.28
			c0,0.56,0.41,0.91,1.1,1.02l3.25,0.47c1.9,0.27,3.21,0.99,3.21,2.58c0,2.46-2.47,3.12-4.99,3.12c-1.6,0-3.12-0.28-4.68-1.18
			l0.16-2.56l0.94,0.01l0.32,1.41c0.87,0.62,1.87,1.05,3.39,1.05c1.66,0,2.92-0.25,2.92-1.46c0-0.72-0.5-1.15-1.37-1.27l-3.39-0.49
			c-1.56-0.22-2.77-0.93-2.77-2.4c0-2.08,1.91-2.84,4.56-2.84c1.86,0,3.33,0.43,4.36,0.94l-0.15,2.61L224.94,100.44z"/>
		<path fill="#B09C55" d="M234.97,97.22l2.47-0.12l0.18,0.04l0.16,3.37l-1.03,0.13l-0.57-2.24l-2.78,0.06v6.51l1.44,0.32l-0.1,0.9
			h-4.46l-0.1-0.9l1.46-0.32v-6.51l-2.8-0.06l-0.56,2.24l-1.05-0.13l0.16-3.37l0.18-0.04l1.91,0.12H234.97z"/>
		<path fill="#B09C55" d="M240.26,105.3c0,0.72-0.59,1.12-1.34,1.12c-0.74,0-1.33-0.4-1.33-1.12c0-0.74,0.59-1.13,1.33-1.13
			C239.67,104.17,240.26,104.56,240.26,105.3z"/>
		<path fill="#B09C55" d="M245.71,97.97c0.93-0.57,2.42-1.12,4.11-1.12c2.86,0,4.31,1.05,4.31,2.84c0,1.21-0.68,1.9-1.78,2.56
			l-4.2,2.53l0.03,0.1l4.71-0.24l0.43-1.44l1.06,0.12l-0.27,2.87h-8.53l-0.15-1.13l5.48-3.61c0.96-0.63,1.4-1.06,1.4-1.91
			c0-0.96-1.06-1.34-2.61-1.34c-1.03,0-1.81,0.27-2.37,0.71l-0.4,1.84h-1.07L245.71,97.97z"/>
		<path fill="#B09C55" d="M265.26,101.71c0,2.89-1.99,4.86-4.96,4.86c-2.97,0-4.96-1.97-4.96-4.86c0-2.89,1.99-4.86,4.96-4.86
			C263.27,96.85,265.26,98.82,265.26,101.71z M257.16,101.71c0,2.46,1.06,3.67,3.14,3.67s3.14-1.21,3.14-3.67s-1.06-3.67-3.14-3.67
			S257.16,99.25,257.16,101.71z"/>
		<path fill="#B09C55" d="M266.46,97.97c0.93-0.57,2.42-1.12,4.11-1.12c2.86,0,4.31,1.05,4.31,2.84c0,1.21-0.68,1.9-1.78,2.56
			l-4.2,2.53l0.03,0.1l4.71-0.24l0.43-1.44l1.06,0.12l-0.26,2.87h-8.53l-0.15-1.13l5.48-3.61c0.96-0.63,1.4-1.06,1.4-1.91
			c0-0.96-1.06-1.34-2.61-1.34c-1.03,0-1.81,0.27-2.37,0.71l-0.4,1.84h-1.08L266.46,97.97z"/>
		<path fill="#B09C55" d="M279.96,104.99l1.28,0.31v0.9h-4.67v-0.9l1.59-0.31v-5.51c-0.53,0.13-0.96,0.19-1.71,0.19l-0.13-0.9
			c1.15-0.18,1.99-0.74,2.67-1.62l0.97,0.15V104.99z"/>
	</g>
</g>
</svg>
